<svg aria-roledescription="flowchart-v2" role="graphics-document document" viewBox="-8 -8 2100.22705078125 618.5" height="618.5" style="background-color: transparent;" xmlns:xlink="http://www.w3.org/1999/xlink" xmlns="http://www.w3.org/2000/svg" width="2100.23" id="my-svg"><style>#my-svg{font-family:Arial,Helvetica,sans-serif;font-size:11px;fill:#333;}#my-svg .error-icon{fill:#552222;}#my-svg .error-text{fill:#552222;stroke:#552222;}#my-svg .edge-thickness-normal{stroke-width:2px;}#my-svg .edge-thickness-thick{stroke-width:3.5px;}#my-svg .edge-pattern-solid{stroke-dasharray:0;}#my-svg .edge-pattern-dashed{stroke-dasharray:3;}#my-svg .edge-pattern-dotted{stroke-dasharray:2;}#my-svg .marker{fill:#333333;stroke:#333333;}#my-svg .marker.cross{stroke:#333333;}#my-svg svg{font-family:Arial,Helvetica,sans-serif;font-size:11px;}#my-svg .label{font-family:Arial,Helvetica,sans-serif;color:#333;}#my-svg .cluster-label text{fill:#333;}#my-svg .cluster-label span,#my-svg p{color:#333;}#my-svg .label text,#my-svg span,#my-svg p{fill:#333;color:#333;}#my-svg .node rect,#my-svg .node circle,#my-svg .node ellipse,#my-svg .node polygon,#my-svg .node path{fill:#ECECFF;stroke:#9370DB;stroke-width:1px;}#my-svg .flowchart-label text{text-anchor:middle;}#my-svg .node .katex path{fill:#000;stroke:#000;stroke-width:1px;}#my-svg .node .label{text-align:center;}#my-svg .node.clickable{cursor:pointer;}#my-svg .arrowheadPath{fill:#333333;}#my-svg .edgePath .path{stroke:#333333;stroke-width:2.0px;}#my-svg .flowchart-link{stroke:#333333;fill:none;}#my-svg .edgeLabel{background-color:#e8e8e8;text-align:center;}#my-svg .edgeLabel rect{opacity:0.5;background-color:#e8e8e8;fill:#e8e8e8;}#my-svg .labelBkg{background-color:rgba(232, 232, 232, 0.5);}#my-svg .cluster rect{fill:#ffffde;stroke:#aaaa33;stroke-width:1px;}#my-svg .cluster text{fill:#333;}#my-svg .cluster span,#my-svg p{color:#333;}#my-svg div.mermaidTooltip{position:absolute;text-align:center;max-width:200px;padding:2px;font-family:Arial,Helvetica,sans-serif;font-size:12px;background:hsl(80, 100%, 96.2745098039%);border:1px solid #aaaa33;border-radius:2px;pointer-events:none;z-index:100;}#my-svg .flowchartTitleText{text-anchor:middle;font-size:18px;fill:#333;}#my-svg :root{--mermaid-font-family:"trebuchet ms",verdana,arial,sans-serif;}</style><g><marker orient="auto" markerHeight="12" markerWidth="12" markerUnits="userSpaceOnUse" refY="5" refX="6" viewBox="0 0 10 10" class="marker flowchart" id="my-svg_flowchart-pointEnd"><path style="stroke-width: 1; stroke-dasharray: 1, 0;" class="arrowMarkerPath" d="M 0 0 L 10 5 L 0 10 z"/></marker><marker orient="auto" markerHeight="12" markerWidth="12" markerUnits="userSpaceOnUse" refY="5" refX="4.5" viewBox="0 0 10 10" class="marker flowchart" id="my-svg_flowchart-pointStart"><path style="stroke-width: 1; stroke-dasharray: 1, 0;" class="arrowMarkerPath" d="M 0 5 L 10 10 L 10 0 z"/></marker><marker orient="auto" markerHeight="11" markerWidth="11" markerUnits="userSpaceOnUse" refY="5" refX="11" viewBox="0 0 10 10" class="marker flowchart" id="my-svg_flowchart-circleEnd"><circle style="stroke-width: 1; stroke-dasharray: 1, 0;" class="arrowMarkerPath" r="5" cy="5" cx="5"/></marker><marker orient="auto" markerHeight="11" markerWidth="11" markerUnits="userSpaceOnUse" refY="5" refX="-1" viewBox="0 0 10 10" class="marker flowchart" id="my-svg_flowchart-circleStart"><circle style="stroke-width: 1; stroke-dasharray: 1, 0;" class="arrowMarkerPath" r="5" cy="5" cx="5"/></marker><marker orient="auto" markerHeight="11" markerWidth="11" markerUnits="userSpaceOnUse" refY="5.2" refX="12" viewBox="0 0 11 11" class="marker cross flowchart" id="my-svg_flowchart-crossEnd"><path style="stroke-width: 2; stroke-dasharray: 1, 0;" class="arrowMarkerPath" d="M 1,1 l 9,9 M 10,1 l -9,9"/></marker><marker orient="auto" markerHeight="11" markerWidth="11" markerUnits="userSpaceOnUse" refY="5.2" refX="-1" viewBox="0 0 11 11" class="marker cross flowchart" id="my-svg_flowchart-crossStart"><path style="stroke-width: 2; stroke-dasharray: 1, 0;" class="arrowMarkerPath" d="M 1,1 l 9,9 M 10,1 l -9,9"/></marker><g class="root"><g class="clusters"><g id="Enclave" class="cluster default flowchart-label"><rect height="288.5" width="808.0751953125" y="0" x="0" ry="0" rx="0" style="fill:#e8f5e9;stroke:#2e7d32;stroke-width:3px;"/><g transform="translate(404.03759765625, 0)" class="cluster-label"><text style=""><tspan class="row" x="0" dy="1em" xml:space="preserve">Nitro Enclave (Trusted)</tspan></text></g></g><g id="Host" class="cluster default flowchart-label"><rect height="128" width="496.54052734375" y="160.5" x="858.0751953125" ry="0" rx="0" style="fill:#fff9c4;stroke:#f57f17;"/><g transform="translate(1106.345458984375, 160.5)" class="cluster-label"><text style=""><tspan class="row" x="0" dy="1em" xml:space="preserve">EC2 Host (Untrusted)</tspan></text></g></g><g id="Network" class="cluster default flowchart-label"><rect height="98" width="781.65234375" y="308.5" x="858.0751953125" ry="0" rx="0" style="fill:#f3e5f5;stroke:#7b1fa2;"/><g transform="translate(1248.9013671875, 308.5)" class="cluster-label"><text style=""><tspan class="row" x="0" dy="1em" xml:space="preserve">Network (Untrusted)</tspan></text></g></g><g id="Browser" class="cluster default flowchart-label"><rect height="176" width="2084.22705078125" y="426.5" x="0" ry="0" rx="0" style="fill:#e3f2fd;stroke:#1565c0;"/><g transform="translate(1042.113525390625, 426.5)" class="cluster-label"><text style=""><tspan class="row" x="0" dy="1em" xml:space="preserve">Browser (User Device)</tspan></text></g></g></g><g class="edgePaths"><path marker-end="url(#my-svg_flowchart-pointEnd)" style="fill:none;" class="edge-thickness-normal edge-pattern-solid flowchart-link LS-Prompt LE-GenAES" id="L-Prompt-GenAES-0" d="M186.894,514.5L200.24,514.5C213.587,514.5,240.281,514.5,256.911,514.5C273.541,514.5,280.107,514.5,283.391,514.5L286.674,514.5"/><path marker-end="url(#my-svg_flowchart-pointEnd)" style="fill:none;" class="edge-thickness-normal edge-pattern-solid flowchart-link LS-GenAES LE-EncPrompt" id="L-GenAES-EncPrompt-0" d="M462.265,514.5L466.431,514.5C470.598,514.5,478.931,514.5,495.839,514.5C512.747,514.5,538.229,514.5,550.97,514.5L563.711,514.5"/><path marker-end="url(#my-svg_flowchart-pointEnd)" style="fill:none;" class="edge-thickness-normal edge-pattern-solid flowchart-link LS-DecryptResp LE-PlainResp" id="L-DecryptResp-PlainResp-0" d="M1859.921,553.5L1864.088,553.5C1868.255,553.5,1876.588,553.5,1886.503,553.5C1896.418,553.5,1907.914,553.5,1913.662,553.5L1919.411,553.5"/><path marker-end="url(#my-svg_flowchart-pointEnd)" style="fill:none;" class="edge-thickness-normal edge-pattern-solid flowchart-link LS-API LE-VsockProxy" id="L-API-VsockProxy-0" d="M1143.187,239.5L1139.02,239.5C1134.854,239.5,1126.52,239.5,1117.534,239.129C1108.547,238.759,1098.907,238.018,1094.087,237.647L1089.267,237.276"/><path marker-end="url(#my-svg_flowchart-pointEnd)" style="fill:none;" class="edge-thickness-normal edge-pattern-solid flowchart-link LS-DecryptEngine LE-LLM" id="L-DecryptEngine-LLM-0" d="M209.765,215.5L219.3,213.75C228.835,212,247.905,208.5,260.943,206.75C273.982,205,280.991,205,284.495,205L287.999,205"/><path marker-end="url(#my-svg_flowchart-pointEnd)" style="fill:none;" class="edge-thickness-normal edge-pattern-solid flowchart-link LS-LLM LE-EncResult" id="L-LLM-EncResult-0" d="M460.94,205L465.327,205C469.715,205,478.49,205,494.655,205C510.82,205,534.376,205,546.153,205L557.931,205"/><path marker-end="url(#my-svg_flowchart-pointEnd)" style="fill:none;" class="edge-thickness-normal edge-pattern-solid flowchart-link LS-EncPrompt LE-HTTPS_Up" id="L-EncPrompt-HTTPS_Up-0" d="M726.329,514.5L739.953,514.5C753.577,514.5,780.826,514.5,798.617,514.5C816.409,514.5,824.742,514.5,833.075,514.5C841.409,514.5,849.742,514.5,873.088,491.347C896.434,468.194,934.794,421.888,953.973,398.735L973.153,375.581"/><path marker-end="url(#my-svg_flowchart-pointEnd)" style="fill:none;" class="edge-thickness-normal edge-pattern-solid flowchart-link LS-HTTPS_Up LE-API" id="L-HTTPS_Up-API-0" d="M1093.187,357.5L1097.354,357.5C1101.52,357.5,1109.854,357.5,1130.76,340.791C1151.666,324.081,1185.146,290.663,1201.885,273.954L1218.625,257.244"/><path marker-end="url(#my-svg_flowchart-pointEnd)" style="fill:none;" class="edge-thickness-normal edge-pattern-solid flowchart-link LS-VsockProxy LE-DecryptEngine" id="L-VsockProxy-DecryptEngine-0" d="M913.813,243.5L904.524,245.25C895.234,247,876.655,250.5,863.198,252.25C849.742,254,841.409,254,833.075,254C824.742,254,816.409,254,785.508,254C754.607,254,701.138,254,647.67,254C594.201,254,540.733,254,495.641,254C450.55,254,413.834,254,377.119,254C340.404,254,303.689,254,276.666,252.409C249.642,250.819,232.31,247.638,223.644,246.047L214.978,244.457"/><path marker-end="url(#my-svg_flowchart-pointEnd)" style="fill:none;" class="edge-thickness-normal edge-pattern-solid flowchart-link LS-EncResult LE-VsockProxy" id="L-EncResult-VsockProxy-0" d="M732.109,205L744.77,205C757.431,205,782.753,205,799.581,205C816.409,205,824.742,205,833.075,205C841.409,205,849.742,205,862.33,206.586C874.918,208.173,891.762,211.346,900.183,212.932L908.605,214.519"/><path marker-end="url(#my-svg_flowchart-pointEnd)" style="fill:none;" class="edge-thickness-normal edge-pattern-solid flowchart-link LS-VsockProxy LE-API" id="L-VsockProxy-API-0" d="M1040.907,215.5L1053.787,212.083C1066.667,208.667,1092.427,201.833,1117.984,203.189C1143.541,204.544,1168.896,214.089,1181.573,218.861L1194.25,223.633"/><path marker-end="url(#my-svg_flowchart-pointEnd)" style="fill:none;" class="edge-thickness-normal edge-pattern-solid flowchart-link LS-API LE-HTTPS_Down" id="L-API-HTTPS_Down-0" d="M1329.616,239.5L1333.782,239.5C1337.949,239.5,1346.282,239.5,1354.616,259.167C1362.949,278.833,1371.282,318.167,1378.732,337.833C1386.182,357.5,1392.749,357.5,1396.032,357.5L1399.316,357.5"/><path marker-end="url(#my-svg_flowchart-pointEnd)" style="fill:none;" class="edge-thickness-normal edge-pattern-solid flowchart-link LS-HTTPS_Down LE-DecryptResp" id="L-HTTPS_Down-DecryptResp-0" d="M1614.728,357.5L1618.894,357.5C1623.061,357.5,1631.394,357.5,1639.728,390.167C1648.061,422.833,1656.394,488.167,1663.844,520.833C1671.294,553.5,1677.861,553.5,1681.144,553.5L1684.428,553.5"/></g><g class="edgeLabels"><g class="edgeLabel"><g transform="translate(0, 0)" class="label"><rect height="0" width="0" ry="0" rx="0"/><text style=""><tspan class="row" x="0" dy="1em" xml:space="preserve"/></text></g></g><g class="edgeLabel"><g transform="translate(0, 0)" class="label"><rect height="0" width="0" ry="0" rx="0"/><text style=""><tspan class="row" x="0" dy="1em" xml:space="preserve"/></text></g></g><g class="edgeLabel"><g transform="translate(0, 0)" class="label"><rect height="0" width="0" ry="0" rx="0"/><text style=""><tspan class="row" x="0" dy="1em" xml:space="preserve"/></text></g></g><g class="edgeLabel"><g transform="translate(0, 0)" class="label"><rect height="0" width="0" ry="0" rx="0"/><text style=""><tspan class="row" x="0" dy="1em" xml:space="preserve"/></text></g></g><g class="edgeLabel"><g transform="translate(0, 0)" class="label"><rect height="0" width="0" ry="0" rx="0"/><text style=""><tspan class="row" x="0" dy="1em" xml:space="preserve"/></text></g></g><g class="edgeLabel"><g transform="translate(0, 0)" class="label"><rect height="0" width="0" ry="0" rx="0"/><text style=""><tspan class="row" x="0" dy="1em" xml:space="preserve"/></text></g></g><g class="edgeLabel"><g transform="translate(0, 0)" class="label"><rect height="0" width="0" ry="0" rx="0"/><text style=""><tspan class="row" x="0" dy="1em" xml:space="preserve"/></text></g></g><g class="edgeLabel"><g transform="translate(0, 0)" class="label"><rect height="0" width="0" ry="0" rx="0"/><text style=""><tspan class="row" x="0" dy="1em" xml:space="preserve"/></text></g></g><g class="edgeLabel"><g transform="translate(0, 0)" class="label"><rect height="0" width="0" ry="0" rx="0"/><text style=""><tspan class="row" x="0" dy="1em" xml:space="preserve"/></text></g></g><g class="edgeLabel"><g transform="translate(0, 0)" class="label"><rect height="0" width="0" ry="0" rx="0"/><text style=""><tspan class="row" x="0" dy="1em" xml:space="preserve"/></text></g></g><g class="edgeLabel"><g transform="translate(0, 0)" class="label"><rect height="0" width="0" ry="0" rx="0"/><text style=""><tspan class="row" x="0" dy="1em" xml:space="preserve"/></text></g></g><g class="edgeLabel"><g transform="translate(0, 0)" class="label"><rect height="0" width="0" ry="0" rx="0"/><text style=""><tspan class="row" x="0" dy="1em" xml:space="preserve"/></text></g></g><g class="edgeLabel"><g transform="translate(0, 0)" class="label"><rect height="0" width="0" ry="0" rx="0"/><text style=""><tspan class="row" x="0" dy="1em" xml:space="preserve"/></text></g></g></g><g class="nodes"><g transform="translate(647.669921875, 49)" data-id="PrivKey" data-node="true" id="flowchart-PrivKey-18" class="node default default flowchart-label"><rect height="28" width="270.810546875" y="-14" x="-135.4052734375" ry="0" rx="0" style="" class="basic label-container"/><g transform="translate(0, -6.5)" style="" class="label"><rect/><text style=""><tspan class="row" x="0" dy="1em" xml:space="preserve">RSA-2048 Private Key — Never leaves enclave</tspan></text></g></g><g transform="translate(133.487060546875, 229.5)" data-id="DecryptEngine" data-node="true" id="flowchart-DecryptEngine-19" class="node default default flowchart-label"><rect height="28" width="216.97412109375" y="-14" x="-108.487060546875" ry="0" rx="0" style="" class="basic label-container"/><g transform="translate(0, -6.5)" style="" class="label"><rect/><text style=""><tspan class="row" x="0" dy="1em" xml:space="preserve">RSA Unwrap AES Key + AES Decrypt</tspan></text></g></g><g transform="translate(377.119384765625, 205)" data-id="LLM" data-node="true" id="flowchart-LLM-20" class="node default default flowchart-label"><rect height="28" width="167.640625" y="-14" x="-83.8203125" ry="0" rx="0" style="" class="basic label-container"/><g transform="translate(0, -6.5)" style="" class="label"><rect/><text style=""><tspan class="row" x="0" dy="1em" xml:space="preserve">Inference — llama.cpp local</tspan></text></g></g><g transform="translate(647.669921875, 127)" data-id="AttestNSM" data-node="true" id="flowchart-AttestNSM-21" class="node default default flowchart-label"><rect height="28" width="215.640625" y="-14" x="-107.8203125" ry="0" rx="0" style="" class="basic label-container"/><g transform="translate(0, -6.5)" style="" class="label"><rect/><text style=""><tspan class="row" x="0" dy="1em" xml:space="preserve">NSM Attestation — PCR0 PCR1 PCR2</tspan></text></g></g><g transform="translate(647.669921875, 205)" data-id="EncResult" data-node="true" id="flowchart-EncResult-22" class="node default default flowchart-label"><rect height="28" width="168.8779296875" y="-14" x="-84.43896484375" ry="0" rx="0" style="" class="basic label-container"/><g transform="translate(0, -6.5)" style="" class="label"><rect/><text style=""><tspan class="row" x="0" dy="1em" xml:space="preserve">AES-GCM Encrypt Response</tspan></text></g></g><g transform="translate(1236.4013671875, 239.5)" data-id="API" data-node="true" id="flowchart-API-14" class="node default default flowchart-label"><rect height="28" width="186.4287109375" y="-14" x="-93.21435546875" ry="0" rx="0" style="" class="basic label-container"/><g transform="translate(0, -6.5)" style="" class="label"><rect/><text style=""><tspan class="row" x="0" dy="1em" xml:space="preserve">HTTP Server — Cannot decrypt</tspan></text></g></g><g transform="translate(988.131103515625, 229.5)" data-id="VsockProxy" data-node="true" id="flowchart-VsockProxy-15" class="node default default flowchart-label"><rect height="28" width="191.703125" y="-14" x="-95.8515625" ry="0" rx="0" style="" class="basic label-container"/><g transform="translate(0, -6.5)" style="" class="label"><rect/><text style=""><tspan class="row" x="0" dy="1em" xml:space="preserve">vsock Proxy — CID 16 Port 5000</tspan></text></g></g><g transform="translate(988.131103515625, 357.5)" data-id="HTTPS_Up" data-node="true" id="flowchart-HTTPS_Up-12" class="node default default flowchart-label"><rect height="28" width="210.11181640625" y="-14" x="-105.055908203125" ry="0" rx="0" style="" class="basic label-container"/><g transform="translate(0, -6.5)" style="" class="label"><rect/><text style=""><tspan class="row" x="0" dy="1em" xml:space="preserve">HTTPS Transport — Ciphertext Only</tspan></text></g></g><g transform="translate(1509.671630859375, 357.5)" data-id="HTTPS_Down" data-node="true" id="flowchart-HTTPS_Down-13" class="node default default flowchart-label"><rect height="28" width="210.11181640625" y="-14" x="-105.055908203125" ry="0" rx="0" style="" class="basic label-container"/><g transform="translate(0, -6.5)" style="" class="label"><rect/><text style=""><tspan class="row" x="0" dy="1em" xml:space="preserve">HTTPS Transport — Ciphertext Only</tspan></text></g></g><g transform="translate(133.487060546875, 514.5)" data-id="Prompt" data-node="true" id="flowchart-Prompt-0" class="node default default flowchart-label"><rect height="28" width="106.81298828125" y="-14" x="-53.406494140625" ry="0" rx="0" style="" class="basic label-container"/><g transform="translate(0, -6.5)" style="" class="label"><rect/><text style=""><tspan class="row" x="0" dy="1em" xml:space="preserve">Plaintext Prompt</tspan></text></g></g><g transform="translate(377.119384765625, 514.5)" data-id="GenAES" data-node="true" id="flowchart-GenAES-1" class="node default default flowchart-label"><rect height="28" width="170.29052734375" y="-14" x="-85.145263671875" ry="0" rx="0" style="" class="basic label-container"/><g transform="translate(0, -6.5)" style="" class="label"><rect/><text style=""><tspan class="row" x="0" dy="1em" xml:space="preserve">Generate AES-256-GCM Key</tspan></text></g></g><g transform="translate(1984.57421875, 475.5)" data-id="PubKey" data-node="true" id="flowchart-PubKey-2" class="node default default flowchart-label"><rect height="28" width="149.3056640625" y="-14" x="-74.65283203125" ry="0" rx="0" style="" class="basic label-container"/><g transform="translate(0, -6.5)" style="" class="label"><rect/><text style=""><tspan class="row" x="0" dy="1em" xml:space="preserve">Executor RSA Public Key</tspan></text></g></g><g transform="translate(647.669921875, 514.5)" data-id="EncPrompt" data-node="true" id="flowchart-EncPrompt-3" class="node default default flowchart-label"><rect height="28" width="157.3173828125" y="-14" x="-78.65869140625" ry="0" rx="0" style="" class="basic label-container"/><g transform="translate(0, -6.5)" style="" class="label"><rect/><text style=""><tspan class="row" x="0" dy="1em" xml:space="preserve">E2E Encrypted Ciphertext</tspan></text></g></g><g transform="translate(1774.824462890625, 553.5)" data-id="DecryptResp" data-node="true" id="flowchart-DecryptResp-4" class="node default default flowchart-label"><rect height="28" width="170.19384765625" y="-14" x="-85.096923828125" ry="0" rx="0" style="" class="basic label-container"/><g transform="translate(0, -6.5)" style="" class="label"><rect/><text style=""><tspan class="row" x="0" dy="1em" xml:space="preserve">AES-GCM Decrypt Response</tspan></text></g></g><g transform="translate(1984.57421875, 553.5)" data-id="PlainResp" data-node="true" id="flowchart-PlainResp-5" class="node default default flowchart-label"><rect height="28" width="119.72705078125" y="-14" x="-59.863525390625" ry="0" rx="0" style="" class="basic label-container"/><g transform="translate(0, -6.5)" style="" class="label"><rect/><text style=""><tspan class="row" x="0" dy="1em" xml:space="preserve">Plaintext Response</tspan></text></g></g></g></g></g></svg>