<?xml version="1.0" encoding="UTF-8"?>
<svg id="Layer_2" data-name="Layer 2" xmlns="http://www.w3.org/2000/svg" viewBox="0 0 561.22 87.51" width="561.22" height="87.51">
  <defs>
    <style>
      .cls-1 {
        fill: #fff;
        stroke-width: 0px;
      }
    </style>
  </defs>
  <g id="Logo">
    <g>
      <g>
        <path class="cls-1" d="M66.37,33.5l5.97,10.34-13.19,22.85h-23.64l-13.19-22.85,13.19-22.85h47.52l-9.02-15.62c-1.81-3.13-5.15-5.06-8.76-5.06H29.4c-3.61,0-6.95,1.93-8.76,5.06L1.35,38.78c-1.81,3.13-1.81,6.98,0,10.11l19.29,33.41c1.81,3.13,5.15,5.06,8.76,5.06h35.84c3.61,0,6.95-1.93,8.76-5.06l22.21-38.47-5.97-10.34h-23.87Z"/>
        <path class="cls-1" d="M400.51,4.9l-19.69,34.1c-1.68,2.91-1.68,6.5,0,9.42l19.69,34.11c1.68,2.91,4.79,4.71,8.16,4.71h36.64c3.37,0,6.47-1.8,8.16-4.71l19.69-34.11c1.68-2.91,1.68-6.5,0-9.42l-19.69-34.1c-1.68-2.91-4.79-4.71-8.16-4.71h-36.64c-3.37,0-6.47,1.8-8.16,4.71ZM415.17,66.56l-13.19-22.85,13.19-22.85h23.64l13.19,22.85-13.19,22.85h-23.64Z"/>
        <path class="cls-1" d="M506.74,66.84V.19h-21.39v79.98c.01,4.05,3.3,7.34,7.35,7.34h55.96c.38,0,.74-.2.93-.53l11.63-20.14h-54.48Z"/>
        <path class="cls-1" d="M375.69,62.2l-44.16-39.61,1.03-1.78h41.3V.16h-57.63c-2.72,0-5.24,1.45-6.6,3.81l-6.83,11.84c-1.7,2.94-1.1,6.67,1.43,8.93l44.71,39.94-1.1,1.9h-45.89v20.64h61.46c2.72,0,5.24-1.45,6.6-3.81l7.1-12.3c1.7-2.94,1.1-6.66-1.42-8.93Z"/>
      </g>
      <path class="cls-1" d="M265.21.19l-20.43-.05-.12,44.4h-4.37L203.57,1.32c-.61-.73-1.51-1.15-2.46-1.15h-8.7c-2.44,0-4.41,1.97-4.41,4.41l.11,82.86,20.43.05.12-44.37h4.37l36.72,43.22c.61.73,1.51,1.15,2.46,1.15h8.7c2.44,0,4.41-1.97,4.41-4.41l-.11-82.89Z"/>
      <g>
        <rect class="cls-1" x="103.17" y="33.62" width="72.23" height="20.11"/>
        <g>
          <path class="cls-1" d="M103.17,67.54v13.49c0,3.51,3,6.35,6.67,6.33l65.55-.09v-19.73h-72.23Z"/>
          <path class="cls-1" d="M103.17,19.82V6.33C103.17,2.82,106.17-.02,109.85,0l65.55.09v19.73h-72.23Z"/>
        </g>
      </g>
    </g>
  </g>
</svg>