<svg xmlns="http://www.w3.org/2000/svg" fill="none" viewBox="0 0 24 24" id="Shield-Lock-Fill--Streamline-Sharp-Fill-Material" height="24" width="24">
  <desc>
    Shield Lock Fill Streamline Icon: https://streamlinehq.com
  </desc>
  <path fill="#000000" d="M12 21.975c-2.33335 -0.58335 -4.25 -1.9375 -5.75 -4.0625S4 13.4583 4 10.925V4.974975l8 -3 8 3V10.925c0 2.5333 -0.75 4.8625 -2.25 6.9875S14.33335 21.39165 12 21.975ZM9 16h6V11h-1v-1c0 -0.55 -0.19585 -1.02085 -0.5875 -1.4125C13.02085 8.1958 12.55 8 12 8s-1.02085 0.1958 -1.4125 0.5875C10.19585 8.97915 10 9.45 10 10v1h-1v5Zm1.75 -5v-1c0 -0.33335 0.125 -0.6125 0.375 -0.8375 0.25 -0.225 0.54165 -0.3375 0.875 -0.3375 0.33335 0 0.625 0.11255 0.875 0.33775 0.25 0.2253 0.375 0.5044 0.375 0.83725v1h-2.5Z" stroke-width="0.5"></path>
</svg>