<svg height="376" aria-roledescription="flowchart-v2" role="graphics-document document" viewBox="-8 -8 641.7308349609375 376" style=" background-color: transparent;" xmlns:xlink="http://www.w3.org/1999/xlink" xmlns="http://www.w3.org/2000/svg" width="641.73" id="my-svg"><style>#my-svg{font-family:Arial,Helvetica,sans-serif;font-size:11px;fill:#333;}#my-svg .error-icon{fill:#552222;}#my-svg .error-text{fill:#552222;stroke:#552222;}#my-svg .edge-thickness-normal{stroke-width:2px;}#my-svg .edge-thickness-thick{stroke-width:3.5px;}#my-svg .edge-pattern-solid{stroke-dasharray:0;}#my-svg .edge-pattern-dashed{stroke-dasharray:3;}#my-svg .edge-pattern-dotted{stroke-dasharray:2;}#my-svg .marker{fill:#333333;stroke:#333333;}#my-svg .marker.cross{stroke:#333333;}#my-svg svg{font-family:Arial,Helvetica,sans-serif;font-size:11px;}#my-svg .label{font-family:Arial,Helvetica,sans-serif;color:#333;}#my-svg .cluster-label text{fill:#333;}#my-svg .cluster-label span,#my-svg p{color:#333;}#my-svg .label text,#my-svg span,#my-svg p{fill:#333;color:#333;}#my-svg .node rect,#my-svg .node circle,#my-svg .node ellipse,#my-svg .node polygon,#my-svg .node path{fill:#ECECFF;stroke:#9370DB;stroke-width:1px;}#my-svg .flowchart-label text{text-anchor:middle;}#my-svg .node .katex path{fill:#000;stroke:#000;stroke-width:1px;}#my-svg .node .label{text-align:center;}#my-svg .node.clickable{cursor:pointer;}#my-svg .arrowheadPath{fill:#333333;}#my-svg .edgePath .path{stroke:#333333;stroke-width:2.0px;}#my-svg .flowchart-link{stroke:#333333;fill:none;}#my-svg .edgeLabel{background-color:#e8e8e8;text-align:center;}#my-svg .edgeLabel rect{opacity:0.5;background-color:#e8e8e8;fill:#e8e8e8;}#my-svg .labelBkg{background-color:rgba(232, 232, 232, 0.5);}#my-svg .cluster rect{fill:#ffffde;stroke:#aaaa33;stroke-width:1px;}#my-svg .cluster text{fill:#333;}#my-svg .cluster span,#my-svg p{color:#333;}#my-svg div.mermaidTooltip{position:absolute;text-align:center;max-width:200px;padding:2px;font-family:Arial,Helvetica,sans-serif;font-size:12px;background:hsl(80, 100%, 96.2745098039%);border:1px solid #aaaa33;border-radius:2px;pointer-events:none;z-index:100;}#my-svg .flowchartTitleText{text-anchor:middle;font-size:18px;fill:#333;}#my-svg :root{--mermaid-font-family:"trebuchet ms",verdana,arial,sans-serif;}</style><g><marker orient="auto" markerHeight="12" markerWidth="12" markerUnits="userSpaceOnUse" refY="5" refX="6" viewBox="0 0 10 10" class="marker flowchart" id="my-svg_flowchart-pointEnd"><path style="stroke-width: 1; stroke-dasharray: 1, 0;" class="arrowMarkerPath" d="M 0 0 L 10 5 L 0 10 z"/></marker><marker orient="auto" markerHeight="12" markerWidth="12" markerUnits="userSpaceOnUse" refY="5" refX="4.5" viewBox="0 0 10 10" class="marker flowchart" id="my-svg_flowchart-pointStart"><path style="stroke-width: 1; stroke-dasharray: 1, 0;" class="arrowMarkerPath" d="M 0 5 L 10 10 L 10 0 z"/></marker><marker orient="auto" markerHeight="11" markerWidth="11" markerUnits="userSpaceOnUse" refY="5" refX="11" viewBox="0 0 10 10" class="marker flowchart" id="my-svg_flowchart-circleEnd"><circle style="stroke-width: 1; stroke-dasharray: 1, 0;" class="arrowMarkerPath" r="5" cy="5" cx="5"/></marker><marker orient="auto" markerHeight="11" markerWidth="11" markerUnits="userSpaceOnUse" refY="5" refX="-1" viewBox="0 0 10 10" class="marker flowchart" id="my-svg_flowchart-circleStart"><circle style="stroke-width: 1; stroke-dasharray: 1, 0;" class="arrowMarkerPath" r="5" cy="5" cx="5"/></marker><marker orient="auto" markerHeight="11" markerWidth="11" markerUnits="userSpaceOnUse" refY="5.2" refX="12" viewBox="0 0 11 11" class="marker cross flowchart" id="my-svg_flowchart-crossEnd"><path style="stroke-width: 2; stroke-dasharray: 1, 0;" class="arrowMarkerPath" d="M 1,1 l 9,9 M 10,1 l -9,9"/></marker><marker orient="auto" markerHeight="11" markerWidth="11" markerUnits="userSpaceOnUse" refY="5.2" refX="-1" viewBox="0 0 11 11" class="marker cross flowchart" id="my-svg_flowchart-crossStart"><path style="stroke-width: 2; stroke-dasharray: 1, 0;" class="arrowMarkerPath" d="M 1,1 l 9,9 M 10,1 l -9,9"/></marker><g class="root"><g class="clusters"/><g class="edgePaths"><path marker-end="url(#my-svg_flowchart-pointEnd)" style="fill:none;" class="edge-thickness-normal edge-pattern-solid flowchart-link LS-Start LE-Pending" id="L-Start-Pending-0" d="M321.023,15L321.023,19.167C321.023,23.333,321.023,31.667,321.023,39.117C321.023,46.567,321.023,53.133,321.023,56.417L321.023,59.7"/><path marker-end="url(#my-svg_flowchart-pointEnd)" style="fill:none;" class="edge-thickness-normal edge-pattern-solid flowchart-link LS-Pending LE-Executing" id="L-Pending-Executing-0" d="M393.587,104L409.092,108.167C424.597,112.333,455.607,120.667,471.112,128.117C486.617,135.567,486.617,142.133,486.617,145.417L486.617,148.7"/><path marker-end="url(#my-svg_flowchart-pointEnd)" style="fill:none;" class="edge-thickness-normal edge-pattern-solid flowchart-link LS-Pending LE-Cancelled" id="L-Pending-Cancelled-0" d="M276.697,104L267.225,108.167C257.753,112.333,238.81,120.667,229.339,132.25C219.867,143.833,219.867,158.667,219.867,174.583C219.867,190.5,219.867,207.5,229.492,220.852C239.116,234.205,258.365,243.909,267.989,248.762L277.614,253.614"/><path marker-end="url(#my-svg_flowchart-pointEnd)" style="fill:none;" class="edge-thickness-normal edge-pattern-solid flowchart-link LS-Executing LE-Completed" id="L-Executing-Completed-0" d="M388.945,186.341L340.573,192.701C292.201,199.061,195.456,211.78,147.083,222.507C98.711,233.233,98.711,241.967,98.711,246.333L98.711,250.7"/><path marker-end="url(#my-svg_flowchart-pointEnd)" style="fill:none;" class="edge-thickness-normal edge-pattern-solid flowchart-link LS-Executing LE-Cancelled" id="L-Executing-Cancelled-0" d="M454.96,193L446.436,198.25C437.913,203.5,420.867,214,404.572,224.037C388.278,234.073,372.736,243.647,364.965,248.434L357.194,253.22"/><path marker-end="url(#my-svg_flowchart-pointEnd)" style="fill:none;" class="edge-thickness-normal edge-pattern-solid flowchart-link LS-Executing LE-TimedOut" id="L-Executing-TimedOut-0" d="M509.452,193L515.6,198.25C521.748,203.5,534.044,214,540.192,223.617C546.34,233.233,546.34,241.967,546.34,246.333L546.34,250.7"/><path marker-end="url(#my-svg_flowchart-pointEnd)" style="fill:none;" class="edge-thickness-normal edge-pattern-solid flowchart-link LS-Completed LE-End" id="L-Completed-End-0" d="M98.711,295L98.711,299.167C98.711,303.333,98.711,311.667,133.652,320.941C168.593,330.216,238.476,340.432,273.417,345.54L308.358,350.648"/><path marker-end="url(#my-svg_flowchart-pointEnd)" style="fill:none;" class="edge-thickness-normal edge-pattern-solid flowchart-link LS-Cancelled LE-End" id="L-Cancelled-End-0" d="M321.023,295L321.023,299.167C321.023,303.333,321.023,311.667,321.023,319.117C321.023,326.567,321.023,333.133,321.023,336.417L321.023,339.7"/><path marker-end="url(#my-svg_flowchart-pointEnd)" style="fill:none;" class="edge-thickness-normal edge-pattern-solid flowchart-link LS-TimedOut LE-End" id="L-TimedOut-End-0" d="M546.34,295L546.34,299.167C546.34,303.333,546.34,311.667,510.899,320.945C475.458,330.224,404.575,340.448,369.134,345.561L333.692,350.673"/></g><g class="edgeLabels"><g class="edgeLabel"><g transform="translate(0, 0)" class="label"><rect height="0" width="0" ry="0" rx="0"/><text style=""><tspan class="row" x="0" dy="1em" xml:space="preserve"/></text></g></g><g class="edgeLabel"><g transform="translate(0, 0)" class="label"><rect height="0" width="0" ry="0" rx="0"/><text style=""><tspan class="row" x="0" dy="1em" xml:space="preserve"/></text></g></g><g transform="translate(219.8671875, 173.5)" class="edgeLabel"><g transform="translate(-32.921875, -6.5)" class="label"><rect height="13.000540733337402" width="65.75273895263672" ry="0" rx="0"/><text style=""><tspan class="row" x="0" dy="1em" xml:space="preserve">User Cancel</tspan></text></g></g><g class="edgeLabel"><g transform="translate(0, 0)" class="label"><rect height="0" width="0" ry="0" rx="0"/><text style=""><tspan class="row" x="0" dy="1em" xml:space="preserve"/></text></g></g><g transform="translate(403.8203125, 224.5)" class="edgeLabel"><g transform="translate(-62.047607421875, -6.5)" class="label"><rect height="13.000540733337402" width="123.93359375" ry="0" rx="0"/><text style=""><tspan class="row" x="0" dy="1em" xml:space="preserve">Auto-Cancel on Failure</tspan></text></g></g><g class="edgeLabel"><g transform="translate(0, 0)" class="label"><rect height="0" width="0" ry="0" rx="0"/><text style=""><tspan class="row" x="0" dy="1em" xml:space="preserve"/></text></g></g><g class="edgeLabel"><g transform="translate(0, 0)" class="label"><rect height="0" width="0" ry="0" rx="0"/><text style=""><tspan class="row" x="0" dy="1em" xml:space="preserve"/></text></g></g><g class="edgeLabel"><g transform="translate(0, 0)" class="label"><rect height="0" width="0" ry="0" rx="0"/><text style=""><tspan class="row" x="0" dy="1em" xml:space="preserve"/></text></g></g><g class="edgeLabel"><g transform="translate(0, 0)" class="label"><rect height="0" width="0" ry="0" rx="0"/><text style=""><tspan class="row" x="0" dy="1em" xml:space="preserve"/></text></g></g></g><g class="nodes"><g transform="translate(321.0234375, 7.5)" data-id="Start" data-node="true" id="flowchart-Start-0" class="node default default flowchart-label"><circle height="15" width="15" r="7.5" ry="0" rx="0" style=""/><g transform="translate(0, 0)" style="" class="label"><rect/><text style=""><tspan class="row" x="0" dy="1em" xml:space="preserve"/></text></g></g><g transform="translate(321.0234375, 84.5)" data-id="Pending" data-node="true" id="flowchart-Pending-1" class="node default default flowchart-label"><rect height="39" width="158.7998046875" y="-19.5" x="-79.39990234375" ry="19.5" rx="19.5" style="fill:#e3f2fd;stroke:#1565c0;"/><g transform="translate(0, -12)" style="" class="label"><rect/><text style=""><tspan class="row" x="0" dy="1em" xml:space="preserve">STATUS 0</tspan><tspan class="row" x="0" dy="1em" xml:space="preserve">NUSDC locked in escrow</tspan></text></g></g><g transform="translate(486.6171875, 173.5)" data-id="Executing" data-node="true" id="flowchart-Executing-3" class="node default default flowchart-label"><rect height="39" width="195.34375" y="-19.5" x="-97.671875" ry="19.5" rx="19.5" style="fill:#fff3e0;stroke:#e65100;"/><g transform="translate(0, -12)" style="" class="label"><rect/><text style=""><tspan class="row" x="0" dy="1em" xml:space="preserve">STATUS 1</tspan><tspan class="row" x="0" dy="1em" xml:space="preserve">TEE processing (5min timeout)</tspan></text></g></g><g transform="translate(321.0234375, 275.5)" data-id="Cancelled" data-node="true" id="flowchart-Cancelled-5" class="node default default flowchart-label"><rect height="39" width="147.203125" y="-19.5" x="-73.6015625" ry="19.5" rx="19.5" style="fill:#f3f4f6;stroke:#6b7280;"/><g transform="translate(0, -12)" style="" class="label"><rect/><text style=""><tspan class="row" x="0" dy="1em" xml:space="preserve">STATUS 3</tspan><tspan class="row" x="0" dy="1em" xml:space="preserve">Cancelled (full refund)</tspan></text></g></g><g transform="translate(98.7109375, 275.5)" data-id="Completed" data-node="true" id="flowchart-Completed-7" class="node default default flowchart-label"><rect height="39" width="197.421875" y="-19.5" x="-98.7109375" ry="19.5" rx="19.5" style="fill:#e8f5e9;stroke:#2e7d32;"/><g transform="translate(0, -12)" style="" class="label"><rect/><text style=""><tspan class="row" x="0" dy="1em" xml:space="preserve">STATUS 2</tspan><tspan class="row" x="0" dy="1em" xml:space="preserve">Settlement complete (+10 rep)</tspan></text></g></g><g transform="translate(546.3402099609375, 275.5)" data-id="TimedOut" data-node="true" id="flowchart-TimedOut-11" class="node default default flowchart-label"><rect height="39" width="158.78125" y="-19.5" x="-79.390625" ry="19.5" rx="19.5" style="fill:#fce4ec;stroke:#c62828;"/><g transform="translate(0, -12)" style="" class="label"><rect/><text style=""><tspan class="row" x="0" dy="1em" xml:space="preserve">STATUS 4</tspan><tspan class="row" x="0" dy="1em" xml:space="preserve">Executor failed (-20 rep)</tspan></text></g></g><g transform="translate(321.0234375, 352.5)" data-id="End" data-node="true" id="flowchart-End-13" class="node default default flowchart-label"><circle height="15" width="15" r="7.5" ry="0" rx="0" style=""/><g transform="translate(0, 0)" style="" class="label"><rect/><text style=""><tspan class="row" x="0" dy="1em" xml:space="preserve"/></text></g></g></g></g></g></svg>