<svg aria-roledescription="flowchart-v2" role="graphics-document document" viewBox="-8 -8 1724.029296875 764" style="background-color: transparent;" xmlns:xlink="http://www.w3.org/1999/xlink" xmlns="http://www.w3.org/2000/svg" width="1724.029296875" id="my-svg"><style>#my-svg{font-family:Arial,Helvetica,sans-serif;font-size:11px;fill:#333;}#my-svg .error-icon{fill:#552222;}#my-svg .error-text{fill:#552222;stroke:#552222;}#my-svg .edge-thickness-normal{stroke-width:2px;}#my-svg .edge-thickness-thick{stroke-width:3.5px;}#my-svg .edge-pattern-solid{stroke-dasharray:0;}#my-svg .edge-pattern-dashed{stroke-dasharray:3;}#my-svg .edge-pattern-dotted{stroke-dasharray:2;}#my-svg .marker{fill:#333333;stroke:#333333;}#my-svg .marker.cross{stroke:#333333;}#my-svg svg{font-family:Arial,Helvetica,sans-serif;font-size:11px;}#my-svg .label{font-family:Arial,Helvetica,sans-serif;color:#333;}#my-svg .cluster-label text{fill:#333;}#my-svg .cluster-label span,#my-svg p{color:#333;}#my-svg .label text,#my-svg span,#my-svg p{fill:#333;color:#333;}#my-svg .node rect,#my-svg .node circle,#my-svg .node ellipse,#my-svg .node polygon,#my-svg .node path{fill:#ECECFF;stroke:#9370DB;stroke-width:1px;}#my-svg .flowchart-label text{text-anchor:middle;}#my-svg .node .katex path{fill:#000;stroke:#000;stroke-width:1px;}#my-svg .node .label{text-align:center;}#my-svg .node.clickable{cursor:pointer;}#my-svg .arrowheadPath{fill:#333333;}#my-svg .edgePath .path{stroke:#333333;stroke-width:2.0px;}#my-svg .flowchart-link{stroke:#333333;fill:none;}#my-svg .edgeLabel{background-color:#e8e8e8;text-align:center;}#my-svg .edgeLabel rect{opacity:0.5;background-color:#e8e8e8;fill:#e8e8e8;}#my-svg .labelBkg{background-color:rgba(232, 232, 232, 0.5);}#my-svg .cluster rect{fill:#ffffde;stroke:#aaaa33;stroke-width:1px;}#my-svg .cluster text{fill:#333;}#my-svg .cluster span,#my-svg p{color:#333;}#my-svg div.mermaidTooltip{position:absolute;text-align:center;max-width:200px;padding:2px;font-family:Arial,Helvetica,sans-serif;font-size:12px;background:hsl(80, 100%, 96.2745098039%);border:1px solid #aaaa33;border-radius:2px;pointer-events:none;z-index:100;}#my-svg .flowchartTitleText{text-anchor:middle;font-size:18px;fill:#333;}#my-svg :root{--mermaid-font-family:"trebuchet ms",verdana,arial,sans-serif;}</style><g><marker orient="auto" markerHeight="12" markerWidth="12" markerUnits="userSpaceOnUse" refY="5" refX="6" viewBox="0 0 10 10" class="marker flowchart" id="my-svg_flowchart-pointEnd"><path style="stroke-width: 1; stroke-dasharray: 1, 0;" class="arrowMarkerPath" d="M 0 0 L 10 5 L 0 10 z"/></marker><marker orient="auto" markerHeight="12" markerWidth="12" markerUnits="userSpaceOnUse" refY="5" refX="4.5" viewBox="0 0 10 10" class="marker flowchart" id="my-svg_flowchart-pointStart"><path style="stroke-width: 1; stroke-dasharray: 1, 0;" class="arrowMarkerPath" d="M 0 5 L 10 10 L 10 0 z"/></marker><marker orient="auto" markerHeight="11" markerWidth="11" markerUnits="userSpaceOnUse" refY="5" refX="11" viewBox="0 0 10 10" class="marker flowchart" id="my-svg_flowchart-circleEnd"><circle style="stroke-width: 1; stroke-dasharray: 1, 0;" class="arrowMarkerPath" r="5" cy="5" cx="5"/></marker><marker orient="auto" markerHeight="11" markerWidth="11" markerUnits="userSpaceOnUse" refY="5" refX="-1" viewBox="0 0 10 10" class="marker flowchart" id="my-svg_flowchart-circleStart"><circle style="stroke-width: 1; stroke-dasharray: 1, 0;" class="arrowMarkerPath" r="5" cy="5" cx="5"/></marker><marker orient="auto" markerHeight="11" markerWidth="11" markerUnits="userSpaceOnUse" refY="5.2" refX="12" viewBox="0 0 11 11" class="marker cross flowchart" id="my-svg_flowchart-crossEnd"><path style="stroke-width: 2; stroke-dasharray: 1, 0;" class="arrowMarkerPath" d="M 1,1 l 9,9 M 10,1 l -9,9"/></marker><marker orient="auto" markerHeight="11" markerWidth="11" markerUnits="userSpaceOnUse" refY="5.2" refX="-1" viewBox="0 0 11 11" class="marker cross flowchart" id="my-svg_flowchart-crossStart"><path style="stroke-width: 2; stroke-dasharray: 1, 0;" class="arrowMarkerPath" d="M 1,1 l 9,9 M 10,1 l -9,9"/></marker><g class="root"><g class="clusters"><g id="Enclave" class="cluster default flowchart-label"><rect height="764" width="990.7086181640625" y="0" x="0" ry="0" rx="0" style="fill:#e8f5e9;stroke:#2e7d32;stroke-width:3px;"/><g transform="translate(495.35430908203125, 0)" class="cluster-label"><text style=""><tspan class="row" x="0" dy="1em" xml:space="preserve">Nitro Enclave (Trusted)</tspan></text></g></g><g id="Host" class="cluster default flowchart-label"><rect height="156" width="316.73876953125" y="284" x="656.91259765625" ry="0" rx="0" style="fill:#fff9c4;stroke:#f57f17;"/><g transform="translate(815.281982421875, 284)" class="cluster-label"><text style=""><tspan class="row" x="0" dy="1em" xml:space="preserve">EC2 Host (Untrusted)</tspan></text></g></g><g id="Network" class="cluster default flowchart-label"><rect height="259" width="280.11181640625" y="284" x="993.6513671875" ry="0" rx="0" style=""/><g transform="translate(1133.707275390625, 284)" class="cluster-label"><text style=""><tspan class="row" x="0" dy="1em" xml:space="preserve">Network (Untrusted)</tspan></text></g></g><g id="Browser" class="cluster default flowchart-label"><rect height="724" width="414.26611328125" y="0" x="1293.76318359375" ry="0" rx="0" style="fill:#e3f2fd;stroke:#1565c0;"/><g transform="translate(1500.896240234375, 0)" class="cluster-label"><text style=""><tspan class="row" x="0" dy="1em" xml:space="preserve">Browser (User Device)</tspan></text></g></g></g><g class="edgePaths"><path marker-end="url(#my-svg_flowchart-pointEnd)" style="fill:none;" class="edge-thickness-normal edge-pattern-solid flowchart-link LS-Prompt LE-GenAES" id="L-Prompt-GenAES-0" d="M1500.896,53L1500.896,57.167C1500.896,61.333,1500.896,69.667,1500.896,77.117C1500.896,84.567,1500.896,91.133,1500.896,94.417L1500.896,97.7"/><path marker-end="url(#my-svg_flowchart-pointEnd)" style="fill:none;" class="edge-thickness-normal edge-pattern-solid flowchart-link LS-GenAES LE-EncPrompt" id="L-GenAES-EncPrompt-0" d="M1500.896,131L1500.896,135.167C1500.896,139.333,1500.896,147.667,1500.896,155.117C1500.896,162.567,1500.896,169.133,1500.896,172.417L1500.896,175.7"/><path marker-end="url(#my-svg_flowchart-pointEnd)" style="fill:none;" class="edge-thickness-normal edge-pattern-solid flowchart-link LS-EncPrompt LE-HTTPS_Up" id="L-EncPrompt-HTTPS_Up-0" d="M1500.896,209L1500.896,213.167C1500.896,217.333,1500.896,225.667,1500.896,234C1500.896,242.333,1500.896,250.667,1500.896,259C1500.896,267.333,1500.896,275.667,1458.086,284.38C1415.275,293.094,1329.654,302.188,1286.844,306.735L1244.034,311.282"/><path marker-end="url(#my-svg_flowchart-pointEnd)" style="fill:none;" class="edge-thickness-normal edge-pattern-solid flowchart-link LS-HTTPS_Up LE-API" id="L-HTTPS_Up-API-0" d="M1133.707,337L1133.707,341.167C1133.707,345.333,1133.707,353.667,1101.634,362.133C1069.561,370.6,1005.414,379.199,973.341,383.499L941.267,387.799"/><path marker-end="url(#my-svg_flowchart-pointEnd)" style="fill:none;" class="edge-thickness-normal edge-pattern-solid flowchart-link LS-API LE-VsockProxy" id="L-API-VsockProxy-0" d="M843.273,387L843.414,382.833C843.555,378.667,843.837,370.333,841.892,362.754C839.946,355.174,835.775,348.348,833.689,344.935L831.603,341.522"/><path marker-end="url(#my-svg_flowchart-pointEnd)" style="fill:none;" class="edge-thickness-normal edge-pattern-solid flowchart-link LS-VsockProxy LE-DecryptEngine" id="L-VsockProxy-DecryptEngine-0" d="M848.262,309L856.589,304.833C864.916,300.667,881.571,292.333,889.898,284C898.226,275.667,898.226,267.333,898.226,259C898.226,250.667,898.226,242.333,898.226,231.667C898.226,221,898.226,208,898.226,195C898.226,182,898.226,169,898.226,156C898.226,143,898.226,130,898.226,117C898.226,104,898.226,91,890.688,80.729C883.151,70.457,868.076,62.914,860.539,59.143L853.002,55.372"/><path marker-end="url(#my-svg_flowchart-pointEnd)" style="fill:none;" class="edge-thickness-normal edge-pattern-solid flowchart-link LS-DecryptEngine LE-LLM" id="L-DecryptEngine-LLM-0" d="M792.302,53L783.975,57.167C775.648,61.333,758.993,69.667,750.666,77.117C742.338,84.567,742.338,91.133,742.338,94.417L742.338,97.7"/><path marker-end="url(#my-svg_flowchart-pointEnd)" style="fill:none;" class="edge-thickness-normal edge-pattern-solid flowchart-link LS-LLM LE-EncResult" id="L-LLM-EncResult-0" d="M742.338,131L742.338,135.167C742.338,139.333,742.338,147.667,742.338,155.117C742.338,162.567,742.338,169.133,742.338,172.417L742.338,175.7"/><path marker-end="url(#my-svg_flowchart-pointEnd)" style="fill:none;" class="edge-thickness-normal edge-pattern-solid flowchart-link LS-EncResult LE-VsockProxy" id="L-EncResult-VsockProxy-0" d="M742.338,209L742.338,213.167C742.338,217.333,742.338,225.667,742.338,234C742.338,242.333,742.338,250.667,742.338,259C742.338,267.333,742.338,275.667,749.876,283.605C757.413,291.543,772.488,299.086,780.025,302.857L787.562,306.628"/><path marker-end="url(#my-svg_flowchart-pointEnd)" style="fill:none;" class="edge-thickness-normal edge-pattern-solid flowchart-link LS-VsockProxy LE-API" id="L-VsockProxy-API-0" d="M788.712,337L779.317,341.167C769.921,345.333,751.13,353.667,752.703,361.706C754.275,369.745,776.212,377.49,787.181,381.363L798.149,385.236"/><path marker-end="url(#my-svg_flowchart-pointEnd)" style="fill:none;" class="edge-thickness-normal edge-pattern-solid flowchart-link LS-API LE-HTTPS_Down" id="L-API-HTTPS_Down-0" d="M842.8,415L842.8,419.167C842.8,423.333,842.8,431.667,891.284,440C939.769,448.333,1036.738,456.667,1085.223,464.117C1133.707,471.567,1133.707,478.133,1133.707,481.417L1133.707,484.7"/><path marker-end="url(#my-svg_flowchart-pointEnd)" style="fill:none;" class="edge-thickness-normal edge-pattern-solid flowchart-link LS-HTTPS_Down LE-DecryptResp" id="L-HTTPS_Down-DecryptResp-0" d="M1133.707,518L1133.707,522.167C1133.707,526.333,1133.707,534.667,1209.411,543C1285.116,551.333,1436.524,559.667,1512.228,567.117C1587.932,574.567,1587.932,581.133,1587.932,584.417L1587.932,587.7"/><path marker-end="url(#my-svg_flowchart-pointEnd)" style="fill:none;" class="edge-thickness-normal edge-pattern-solid flowchart-link LS-DecryptResp LE-PlainResp" id="L-DecryptResp-PlainResp-0" d="M1587.932,621L1587.932,625.167C1587.932,629.333,1587.932,637.667,1587.932,645.117C1587.932,652.567,1587.932,659.133,1587.932,662.417L1587.932,665.7"/></g><g class="edgeLabels"><g class="edgeLabel"><g transform="translate(0, 0)" class="label"><rect height="0" width="0" ry="0" rx="0"/><text style=""><tspan class="row" x="0" dy="1em" xml:space="preserve"/></text></g></g><g class="edgeLabel"><g transform="translate(0, 0)" class="label"><rect height="0" width="0" ry="0" rx="0"/><text style=""><tspan class="row" x="0" dy="1em" xml:space="preserve"/></text></g></g><g class="edgeLabel"><g transform="translate(0, 0)" class="label"><rect height="0" width="0" ry="0" rx="0"/><text style=""><tspan class="row" x="0" dy="1em" xml:space="preserve"/></text></g></g><g class="edgeLabel"><g transform="translate(0, 0)" class="label"><rect height="0" width="0" ry="0" rx="0"/><text style=""><tspan class="row" x="0" dy="1em" xml:space="preserve"/></text></g></g><g class="edgeLabel"><g transform="translate(0, 0)" class="label"><rect height="0" width="0" ry="0" rx="0"/><text style=""><tspan class="row" x="0" dy="1em" xml:space="preserve"/></text></g></g><g class="edgeLabel"><g transform="translate(0, 0)" class="label"><rect height="0" width="0" ry="0" rx="0"/><text style=""><tspan class="row" x="0" dy="1em" xml:space="preserve"/></text></g></g><g class="edgeLabel"><g transform="translate(0, 0)" class="label"><rect height="0" width="0" ry="0" rx="0"/><text style=""><tspan class="row" x="0" dy="1em" xml:space="preserve"/></text></g></g><g class="edgeLabel"><g transform="translate(0, 0)" class="label"><rect height="0" width="0" ry="0" rx="0"/><text style=""><tspan class="row" x="0" dy="1em" xml:space="preserve"/></text></g></g><g class="edgeLabel"><g transform="translate(0, 0)" class="label"><rect height="0" width="0" ry="0" rx="0"/><text style=""><tspan class="row" x="0" dy="1em" xml:space="preserve"/></text></g></g><g class="edgeLabel"><g transform="translate(0, 0)" class="label"><rect height="0" width="0" ry="0" rx="0"/><text style=""><tspan class="row" x="0" dy="1em" xml:space="preserve"/></text></g></g><g class="edgeLabel"><g transform="translate(0, 0)" class="label"><rect height="0" width="0" ry="0" rx="0"/><text style=""><tspan class="row" x="0" dy="1em" xml:space="preserve"/></text></g></g><g class="edgeLabel"><g transform="translate(0, 0)" class="label"><rect height="0" width="0" ry="0" rx="0"/><text style=""><tspan class="row" x="0" dy="1em" xml:space="preserve"/></text></g></g><g class="edgeLabel"><g transform="translate(0, 0)" class="label"><rect height="0" width="0" ry="0" rx="0"/><text style=""><tspan class="row" x="0" dy="1em" xml:space="preserve"/></text></g></g></g><g class="nodes"><g transform="translate(170.4052734375, 195)" data-id="PrivKey" data-node="true" id="flowchart-PrivKey-10" class="node default default flowchart-label"><rect height="28" width="270.810546875" y="-14" x="-135.4052734375" ry="0" rx="0" style="" class="basic label-container"/><g transform="translate(0, -6.5)" style="" class="label"><rect/><text style=""><tspan class="row" x="0" dy="1em" xml:space="preserve">RSA-2048 Private Key — Never leaves enclave</tspan></text></g></g><g transform="translate(820.281982421875, 39)" data-id="DecryptEngine" data-node="true" id="flowchart-DecryptEngine-11" class="node default default flowchart-label"><rect height="28" width="259.93212890625" y="-14" x="-129.966064453125" ry="0" rx="0" style="" class="basic label-container"/><g transform="translate(0, -6.5)" style="" class="label"><rect/><text style=""><tspan class="row" x="0" dy="1em" xml:space="preserve">RSA Unwrap AES Key + AES Decrypt Prompt</tspan></text></g></g><g transform="translate(742.33837890625, 117)" data-id="LLM" data-node="true" id="flowchart-LLM-12" class="node default default flowchart-label"><rect height="28" width="167.640625" y="-14" x="-83.8203125" ry="0" rx="0" style="" class="basic label-container"/><g transform="translate(0, -6.5)" style="" class="label"><rect/><text style=""><tspan class="row" x="0" dy="1em" xml:space="preserve">Inference — llama.cpp local</tspan></text></g></g><g transform="translate(463.630859375, 195)" data-id="AttestNSM" data-node="true" id="flowchart-AttestNSM-13" class="node default default flowchart-label"><rect height="28" width="215.640625" y="-14" x="-107.8203125" ry="0" rx="0" style="" class="basic label-container"/><g transform="translate(0, -6.5)" style="" class="label"><rect/><text style=""><tspan class="row" x="0" dy="1em" xml:space="preserve">NSM Attestation — PCR0 PCR1 PCR2</tspan></text></g></g><g transform="translate(742.33837890625, 195)" data-id="EncResult" data-node="true" id="flowchart-EncResult-14" class="node default default flowchart-label"><rect height="28" width="241.7744140625" y="-14" x="-120.88720703125" ry="0" rx="0" style="" class="basic label-container"/><g transform="translate(0, -6.5)" style="" class="label"><rect/><text style=""><tspan class="row" x="0" dy="1em" xml:space="preserve">AES-GCM Encrypt Response — Same Key</tspan></text></g></g><g transform="translate(842.7998046875, 401)" data-id="API" data-node="true" id="flowchart-API-8" class="node default default flowchart-label"><rect height="28" width="186.4287109375" y="-14" x="-93.21435546875" ry="0" rx="0" style="" class="basic label-container"/><g transform="translate(0, -6.5)" style="" class="label"><rect/><text style=""><tspan class="row" x="0" dy="1em" xml:space="preserve">HTTP Server — Cannot decrypt</tspan></text></g></g><g transform="translate(820.281982421875, 323)" data-id="VsockProxy" data-node="true" id="flowchart-VsockProxy-9" class="node default default flowchart-label"><rect height="28" width="191.703125" y="-14" x="-95.8515625" ry="0" rx="0" style="" class="basic label-container"/><g transform="translate(0, -6.5)" style="" class="label"><rect/><text style=""><tspan class="row" x="0" dy="1em" xml:space="preserve">vsock Proxy — CID 16 Port 5000</tspan></text></g></g><g transform="translate(1133.707275390625, 323)" data-id="HTTPS_Up" data-node="true" id="flowchart-HTTPS_Up-6" class="node default default flowchart-label"><rect height="28" width="210.11181640625" y="-14" x="-105.055908203125" ry="0" rx="0" style="" class="basic label-container"/><g transform="translate(0, -6.5)" style="" class="label"><rect/><text style=""><tspan class="row" x="0" dy="1em" xml:space="preserve">HTTPS Transport — Ciphertext Only</tspan></text></g></g><g transform="translate(1133.707275390625, 504)" data-id="HTTPS_Down" data-node="true" id="flowchart-HTTPS_Down-7" class="node default default flowchart-label"><rect height="28" width="210.11181640625" y="-14" x="-105.055908203125" ry="0" rx="0" style="" class="basic label-container"/><g transform="translate(0, -6.5)" style="" class="label"><rect/><text style=""><tspan class="row" x="0" dy="1em" xml:space="preserve">HTTPS Transport — Ciphertext Only</tspan></text></g></g><g transform="translate(1500.896240234375, 39)" data-id="Prompt" data-node="true" id="flowchart-Prompt-0" class="node default default flowchart-label"><rect height="28" width="106.81298828125" y="-14" x="-53.406494140625" ry="0" rx="0" style="" class="basic label-container"/><g transform="translate(0, -6.5)" style="" class="label"><rect/><text style=""><tspan class="row" x="0" dy="1em" xml:space="preserve">Plaintext Prompt</tspan></text></g></g><g transform="translate(1500.896240234375, 117)" data-id="GenAES" data-node="true" id="flowchart-GenAES-1" class="node default default flowchart-label"><rect height="28" width="170.29052734375" y="-14" x="-85.145263671875" ry="0" rx="0" style="" class="basic label-container"/><g transform="translate(0, -6.5)" style="" class="label"><rect/><text style=""><tspan class="row" x="0" dy="1em" xml:space="preserve">Generate AES-256-GCM Key</tspan></text></g></g><g transform="translate(1403.416015625, 685)" data-id="PubKey" data-node="true" id="flowchart-PubKey-2" class="node default default flowchart-label"><rect height="28" width="149.3056640625" y="-14" x="-74.65283203125" ry="0" rx="0" style="" class="basic label-container"/><g transform="translate(0, -6.5)" style="" class="label"><rect/><text style=""><tspan class="row" x="0" dy="1em" xml:space="preserve">Executor RSA Public Key</tspan></text></g></g><g transform="translate(1500.896240234375, 195)" data-id="EncPrompt" data-node="true" id="flowchart-EncPrompt-3" class="node default default flowchart-label"><rect height="28" width="235.12060546875" y="-14" x="-117.560302734375" ry="0" rx="0" style="" class="basic label-container"/><g transform="translate(0, -6.5)" style="" class="label"><rect/><text style=""><tspan class="row" x="0" dy="1em" xml:space="preserve">E2E Encrypted Ciphertext — AES + RSA</tspan></text></g></g><g transform="translate(1587.932373046875, 607)" data-id="DecryptResp" data-node="true" id="flowchart-DecryptResp-4" class="node default default flowchart-label"><rect height="28" width="170.19384765625" y="-14" x="-85.096923828125" ry="0" rx="0" style="" class="basic label-container"/><g transform="translate(0, -6.5)" style="" class="label"><rect/><text style=""><tspan class="row" x="0" dy="1em" xml:space="preserve">AES-GCM Decrypt Response</tspan></text></g></g><g transform="translate(1587.932373046875, 685)" data-id="PlainResp" data-node="true" id="flowchart-PlainResp-5" class="node default default flowchart-label"><rect height="28" width="119.72705078125" y="-14" x="-59.863525390625" ry="0" rx="0" style="" class="basic label-container"/><g transform="translate(0, -6.5)" style="" class="label"><rect/><text style=""><tspan class="row" x="0" dy="1em" xml:space="preserve">Plaintext Response</tspan></text></g></g></g></g></g></svg>