<svg height="2385.28" aria-roledescription="flowchart-v2" role="graphics-document document" viewBox="-8 -8 647.572998046875 2385.2783203125" style=" background-color: transparent;" xmlns:xlink="http://www.w3.org/1999/xlink" xmlns="http://www.w3.org/2000/svg" width="647.57" id="my-svg"><style>#my-svg{font-family:Arial,Helvetica,sans-serif;font-size:11px;fill:#333;}#my-svg .error-icon{fill:#552222;}#my-svg .error-text{fill:#552222;stroke:#552222;}#my-svg .edge-thickness-normal{stroke-width:2px;}#my-svg .edge-thickness-thick{stroke-width:3.5px;}#my-svg .edge-pattern-solid{stroke-dasharray:0;}#my-svg .edge-pattern-dashed{stroke-dasharray:3;}#my-svg .edge-pattern-dotted{stroke-dasharray:2;}#my-svg .marker{fill:#333333;stroke:#333333;}#my-svg .marker.cross{stroke:#333333;}#my-svg svg{font-family:Arial,Helvetica,sans-serif;font-size:11px;}#my-svg .label{font-family:Arial,Helvetica,sans-serif;color:#333;}#my-svg .cluster-label text{fill:#333;}#my-svg .cluster-label span,#my-svg p{color:#333;}#my-svg .label text,#my-svg span,#my-svg p{fill:#333;color:#333;}#my-svg .node rect,#my-svg .node circle,#my-svg .node ellipse,#my-svg .node polygon,#my-svg .node path{fill:#ECECFF;stroke:#9370DB;stroke-width:1px;}#my-svg .flowchart-label text{text-anchor:middle;}#my-svg .node .katex path{fill:#000;stroke:#000;stroke-width:1px;}#my-svg .node .label{text-align:center;}#my-svg .node.clickable{cursor:pointer;}#my-svg .arrowheadPath{fill:#333333;}#my-svg .edgePath .path{stroke:#333333;stroke-width:2.0px;}#my-svg .flowchart-link{stroke:#333333;fill:none;}#my-svg .edgeLabel{background-color:#e8e8e8;text-align:center;}#my-svg .edgeLabel rect{opacity:0.5;background-color:#e8e8e8;fill:#e8e8e8;}#my-svg .labelBkg{background-color:rgba(232, 232, 232, 0.5);}#my-svg .cluster rect{fill:#ffffde;stroke:#aaaa33;stroke-width:1px;}#my-svg .cluster text{fill:#333;}#my-svg .cluster span,#my-svg p{color:#333;}#my-svg div.mermaidTooltip{position:absolute;text-align:center;max-width:200px;padding:2px;font-family:Arial,Helvetica,sans-serif;font-size:12px;background:hsl(80, 100%, 96.2745098039%);border:1px solid #aaaa33;border-radius:2px;pointer-events:none;z-index:100;}#my-svg .flowchartTitleText{text-anchor:middle;font-size:18px;fill:#333;}#my-svg :root{--mermaid-font-family:"trebuchet ms",verdana,arial,sans-serif;}</style><g><marker orient="auto" markerHeight="12" markerWidth="12" markerUnits="userSpaceOnUse" refY="5" refX="6" viewBox="0 0 10 10" class="marker flowchart" id="my-svg_flowchart-pointEnd"><path style="stroke-width: 1; stroke-dasharray: 1, 0;" class="arrowMarkerPath" d="M 0 0 L 10 5 L 0 10 z"/></marker><marker orient="auto" markerHeight="12" markerWidth="12" markerUnits="userSpaceOnUse" refY="5" refX="4.5" viewBox="0 0 10 10" class="marker flowchart" id="my-svg_flowchart-pointStart"><path style="stroke-width: 1; stroke-dasharray: 1, 0;" class="arrowMarkerPath" d="M 0 5 L 10 10 L 10 0 z"/></marker><marker orient="auto" markerHeight="11" markerWidth="11" markerUnits="userSpaceOnUse" refY="5" refX="11" viewBox="0 0 10 10" class="marker flowchart" id="my-svg_flowchart-circleEnd"><circle style="stroke-width: 1; stroke-dasharray: 1, 0;" class="arrowMarkerPath" r="5" cy="5" cx="5"/></marker><marker orient="auto" markerHeight="11" markerWidth="11" markerUnits="userSpaceOnUse" refY="5" refX="-1" viewBox="0 0 10 10" class="marker flowchart" id="my-svg_flowchart-circleStart"><circle style="stroke-width: 1; stroke-dasharray: 1, 0;" class="arrowMarkerPath" r="5" cy="5" cx="5"/></marker><marker orient="auto" markerHeight="11" markerWidth="11" markerUnits="userSpaceOnUse" refY="5.2" refX="12" viewBox="0 0 11 11" class="marker cross flowchart" id="my-svg_flowchart-crossEnd"><path style="stroke-width: 2; stroke-dasharray: 1, 0;" class="arrowMarkerPath" d="M 1,1 l 9,9 M 10,1 l -9,9"/></marker><marker orient="auto" markerHeight="11" markerWidth="11" markerUnits="userSpaceOnUse" refY="5.2" refX="-1" viewBox="0 0 11 11" class="marker cross flowchart" id="my-svg_flowchart-crossStart"><path style="stroke-width: 2; stroke-dasharray: 1, 0;" class="arrowMarkerPath" d="M 1,1 l 9,9 M 10,1 l -9,9"/></marker><g class="root"><g class="clusters"/><g class="edgePaths"><path marker-end="url(#my-svg_flowchart-pointEnd)" style="fill:none;" class="edge-thickness-normal edge-pattern-solid flowchart-link LS-Start LE-ConnectWallet" id="L-Start-ConnectWallet-0" d="M406.393,28L406.393,32.167C406.393,36.333,406.393,44.667,406.459,52.2C406.525,59.734,406.657,66.467,406.723,69.834L406.789,73.201"/><path marker-end="url(#my-svg_flowchart-pointEnd)" style="fill:none;" class="edge-thickness-normal edge-pattern-solid flowchart-link LS-ConnectWallet LE-ShowLock" id="L-ConnectWallet-ShowLock-0" d="M380.352,197.795L374.733,207.385C369.114,216.975,357.875,236.155,352.256,250.112C346.636,264.069,346.636,272.802,346.636,277.169L346.636,281.535"/><path marker-end="url(#my-svg_flowchart-pointEnd)" style="fill:none;" class="edge-thickness-normal edge-pattern-solid flowchart-link LS-ShowLock LE-ConnectMethod" id="L-ShowLock-ConnectMethod-0" d="M346.636,314.835L346.636,319.002C346.636,323.169,346.636,331.502,346.702,339.036C346.769,346.569,346.901,353.303,346.967,356.67L347.033,360.036"/><path marker-end="url(#my-svg_flowchart-pointEnd)" style="fill:none;" class="edge-thickness-normal edge-pattern-solid flowchart-link LS-ConnectMethod LE-ZkLogin" id="L-ConnectMethod-ZkLogin-0" d="M317.449,485.648L310.684,495.763C303.92,505.877,290.39,526.106,283.626,540.588C276.861,555.069,276.861,563.802,276.861,568.169L276.861,572.535"/><path marker-end="url(#my-svg_flowchart-pointEnd)" style="fill:none;" class="edge-thickness-normal edge-pattern-solid flowchart-link LS-ConnectMethod LE-SelfCustody" id="L-ConnectMethod-SelfCustody-0" d="M376.824,485.648L383.422,495.763C390.02,505.877,403.216,526.106,409.814,540.588C416.412,555.069,416.412,563.802,416.412,568.169L416.412,572.535"/><path marker-end="url(#my-svg_flowchart-pointEnd)" style="fill:none;" class="edge-thickness-normal edge-pattern-solid flowchart-link LS-ZkLogin LE-WalletReady" id="L-ZkLogin-WalletReady-0" d="M276.861,605.835L276.861,610.002C276.861,614.169,276.861,622.502,283.544,630.404C290.228,638.307,303.595,645.778,310.279,649.514L316.962,653.25"/><path marker-end="url(#my-svg_flowchart-pointEnd)" style="fill:none;" class="edge-thickness-normal edge-pattern-solid flowchart-link LS-SelfCustody LE-WalletReady" id="L-SelfCustody-WalletReady-0" d="M416.412,605.835L416.412,610.002C416.412,614.169,416.412,622.502,409.729,630.404C403.045,638.307,389.678,645.778,382.994,649.514L376.311,653.25"/><path marker-end="url(#my-svg_flowchart-pointEnd)" style="fill:none;" class="edge-thickness-normal edge-pattern-solid flowchart-link LS-ConnectWallet LE-WalletReady" id="L-ConnectWallet-WalletReady-0" d="M445.553,185.675L458.667,197.285C471.78,208.895,498.006,232.115,511.119,251.309C524.232,270.502,524.232,285.669,524.232,299.752C524.232,313.835,524.232,326.835,524.232,350.002C524.232,373.169,524.232,406.502,524.232,440.919C524.232,475.335,524.232,510.835,524.232,536.169C524.232,561.502,524.232,576.669,524.232,590.752C524.232,604.835,524.232,617.835,502.766,629.049C481.3,640.263,438.367,649.691,416.901,654.405L395.434,659.119"/><path marker-end="url(#my-svg_flowchart-pointEnd)" style="fill:none;" class="edge-thickness-normal edge-pattern-solid flowchart-link LS-WalletReady LE-LoadHistory" id="L-WalletReady-LoadHistory-0" d="M346.636,683.835L346.636,688.002C346.636,692.169,346.636,700.502,346.636,707.952C346.636,715.402,346.636,721.969,346.636,725.252L346.636,728.535"/><path marker-end="url(#my-svg_flowchart-pointEnd)" style="fill:none;" class="edge-thickness-normal edge-pattern-solid flowchart-link LS-LoadHistory LE-ChatUI" id="L-LoadHistory-ChatUI-0" d="M346.636,761.835L346.636,766.002C346.636,770.169,346.636,778.502,346.636,785.952C346.636,793.402,346.636,799.969,346.636,803.252L346.636,806.535"/><path marker-end="url(#my-svg_flowchart-pointEnd)" style="fill:none;" class="edge-thickness-normal edge-pattern-solid flowchart-link LS-ChatUI LE-SelectModel" id="L-ChatUI-SelectModel-0" d="M313.824,839.835L304.058,844.002C294.292,848.169,274.761,856.502,264.995,863.952C255.229,871.402,255.229,877.969,255.229,881.252L255.229,884.535"/><path marker-end="url(#my-svg_flowchart-pointEnd)" style="fill:none;" class="edge-thickness-normal edge-pattern-solid flowchart-link LS-SelectModel LE-TypePrompt" id="L-SelectModel-TypePrompt-0" d="M255.229,917.835L255.229,922.002C255.229,926.169,255.229,934.502,255.229,941.952C255.229,949.402,255.229,955.969,255.229,959.252L255.229,962.535"/><path marker-end="url(#my-svg_flowchart-pointEnd)" style="fill:none;" class="edge-thickness-normal edge-pattern-solid flowchart-link LS-TypePrompt LE-Submit" id="L-TypePrompt-Submit-0" d="M255.229,995.835L255.229,1000.002C255.229,1004.169,255.229,1012.502,255.229,1019.952C255.229,1027.402,255.229,1033.969,255.229,1037.252L255.229,1040.535"/><path marker-end="url(#my-svg_flowchart-pointEnd)" style="fill:none;" class="edge-thickness-normal edge-pattern-solid flowchart-link LS-Submit LE-AutoAssign" id="L-Submit-AutoAssign-0" d="M255.229,1073.835L255.229,1078.002C255.229,1082.169,255.229,1090.502,255.229,1097.952C255.229,1105.402,255.229,1111.969,255.229,1115.252L255.229,1118.535"/><path marker-end="url(#my-svg_flowchart-pointEnd)" style="fill:none;" class="edge-thickness-normal edge-pattern-solid flowchart-link LS-AutoAssign LE-FetchPubKey" id="L-AutoAssign-FetchPubKey-0" d="M230.716,1151.835L223.421,1156.002C216.125,1160.169,201.535,1168.502,194.239,1175.952C186.944,1183.402,186.944,1189.969,186.944,1193.252L186.944,1196.535"/><path marker-end="url(#my-svg_flowchart-pointEnd)" style="fill:none;" class="edge-thickness-normal edge-pattern-solid flowchart-link LS-FetchPubKey LE-GenAES" id="L-FetchPubKey-GenAES-0" d="M186.944,1229.835L186.944,1234.002C186.944,1238.169,186.944,1246.502,186.944,1253.952C186.944,1261.402,186.944,1267.969,186.944,1271.252L186.944,1274.535"/><path marker-end="url(#my-svg_flowchart-pointEnd)" style="fill:none;" class="edge-thickness-normal edge-pattern-solid flowchart-link LS-GenAES LE-Encrypt" id="L-GenAES-Encrypt-0" d="M186.944,1307.835L186.944,1312.002C186.944,1316.169,186.944,1324.502,186.944,1331.952C186.944,1339.402,186.944,1345.969,186.944,1349.252L186.944,1352.535"/><path marker-end="url(#my-svg_flowchart-pointEnd)" style="fill:none;" class="edge-thickness-normal edge-pattern-solid flowchart-link LS-Encrypt LE-BuildTx" id="L-Encrypt-BuildTx-0" d="M186.944,1385.835L186.944,1390.002C186.944,1394.169,186.944,1402.502,186.944,1409.952C186.944,1417.402,186.944,1423.969,186.944,1427.252L186.944,1430.535"/><path marker-end="url(#my-svg_flowchart-pointEnd)" style="fill:none;" class="edge-thickness-normal edge-pattern-solid flowchart-link LS-BuildTx LE-SignTx" id="L-BuildTx-SignTx-0" d="M186.944,1463.835L186.944,1468.002C186.944,1472.169,186.944,1480.502,186.944,1487.952C186.944,1495.402,186.944,1501.969,186.944,1505.252L186.944,1508.535"/><path marker-end="url(#my-svg_flowchart-pointEnd)" style="fill:none;" class="edge-thickness-normal edge-pattern-solid flowchart-link LS-SignTx LE-SubmitTx" id="L-SignTx-SubmitTx-0" d="M186.944,1541.835L186.944,1546.002C186.944,1550.169,186.944,1558.502,186.944,1565.952C186.944,1573.402,186.944,1579.969,186.944,1583.252L186.944,1586.535"/><path marker-end="url(#my-svg_flowchart-pointEnd)" style="fill:none;" class="edge-thickness-normal edge-pattern-solid flowchart-link LS-SubmitTx LE-EscrowCreated" id="L-SubmitTx-EscrowCreated-0" d="M186.944,1619.835L186.944,1624.002C186.944,1628.169,186.944,1636.502,186.944,1643.952C186.944,1651.402,186.944,1657.969,186.944,1661.252L186.944,1664.535"/><path marker-end="url(#my-svg_flowchart-pointEnd)" style="fill:none;" class="edge-thickness-normal edge-pattern-solid flowchart-link LS-EscrowCreated LE-CallExecutor" id="L-EscrowCreated-CallExecutor-0" d="M186.944,1697.835L186.944,1702.002C186.944,1706.169,186.944,1714.502,186.944,1721.952C186.944,1729.402,186.944,1735.969,186.944,1739.252L186.944,1742.535"/><path marker-end="url(#my-svg_flowchart-pointEnd)" style="fill:none;" class="edge-thickness-normal edge-pattern-solid flowchart-link LS-CallExecutor LE-WaitResult" id="L-CallExecutor-WaitResult-0" d="M186.944,1775.835L186.944,1780.002C186.944,1784.169,186.944,1792.502,186.944,1799.952C186.944,1807.402,186.944,1813.969,186.944,1817.252L186.944,1820.535"/><path marker-end="url(#my-svg_flowchart-pointEnd)" style="fill:none;" class="edge-thickness-normal edge-pattern-solid flowchart-link LS-WaitResult LE-ResultOk" id="L-WaitResult-ResultOk-0" d="M186.944,1853.835L186.944,1858.002C186.944,1862.169,186.944,1870.502,187.01,1878.036C187.076,1885.569,187.208,1892.303,187.274,1895.67L187.34,1899.036"/><path marker-end="url(#my-svg_flowchart-pointEnd)" style="fill:none;" class="edge-thickness-normal edge-pattern-solid flowchart-link LS-ResultOk LE-DecryptResp" id="L-ResultOk-DecryptResp-0" d="M162.821,1972.992L152.277,1982.262C141.733,1991.533,120.644,2010.074,110.1,2023.711C99.556,2037.348,99.556,2046.081,99.556,2050.448L99.556,2054.815"/><path marker-end="url(#my-svg_flowchart-pointEnd)" style="fill:none;" class="edge-thickness-normal edge-pattern-solid flowchart-link LS-DecryptResp LE-ShowResult" id="L-DecryptResp-ShowResult-0" d="M99.556,2088.115L99.556,2092.281C99.556,2096.448,99.556,2104.781,99.556,2121.578C99.556,2138.375,99.556,2163.636,99.556,2176.266L99.556,2188.897"/><path marker-end="url(#my-svg_flowchart-pointEnd)" style="fill:none;" class="edge-thickness-normal edge-pattern-solid flowchart-link LS-ResultOk LE-AutoCancel" id="L-ResultOk-AutoCancel-0" d="M219.01,1966.049L240.938,1976.476C262.867,1986.904,306.724,2007.759,328.652,2022.554C350.581,2037.348,350.581,2046.081,350.581,2050.448L350.581,2054.815"/><path marker-end="url(#my-svg_flowchart-pointEnd)" style="fill:none;" class="edge-thickness-normal edge-pattern-solid flowchart-link LS-AutoCancel LE-ReRoll" id="L-AutoCancel-ReRoll-0" d="M350.581,2088.115L350.581,2092.281C350.581,2096.448,350.581,2104.781,356.646,2117.364C362.712,2129.946,374.843,2146.777,380.908,2155.193L386.974,2163.608"/><path marker-end="url(#my-svg_flowchart-pointEnd)" style="fill:none;" class="edge-thickness-normal edge-pattern-solid flowchart-link LS-ReRoll LE-AutoAssign" id="L-ReRoll-AutoAssign-0" d="M450.646,2169.895L458.125,2160.432C465.603,2150.968,480.56,2132.041,488.039,2116.078C495.517,2100.115,495.517,2087.115,495.517,2073.031C495.517,2058.948,495.517,2043.781,495.517,2023.175C495.517,2002.568,495.517,1976.522,495.517,1951.558C495.517,1926.595,495.517,1902.715,495.517,1884.275C495.517,1865.835,495.517,1852.835,495.517,1839.835C495.517,1826.835,495.517,1813.835,495.517,1800.835C495.517,1787.835,495.517,1774.835,495.517,1761.835C495.517,1748.835,495.517,1735.835,495.517,1722.835C495.517,1709.835,495.517,1696.835,495.517,1683.835C495.517,1670.835,495.517,1657.835,495.517,1644.835C495.517,1631.835,495.517,1618.835,495.517,1605.835C495.517,1592.835,495.517,1579.835,495.517,1566.835C495.517,1553.835,495.517,1540.835,495.517,1527.835C495.517,1514.835,495.517,1501.835,495.517,1488.835C495.517,1475.835,495.517,1462.835,495.517,1449.835C495.517,1436.835,495.517,1423.835,495.517,1410.835C495.517,1397.835,495.517,1384.835,495.517,1371.835C495.517,1358.835,495.517,1345.835,495.517,1332.835C495.517,1319.835,495.517,1306.835,495.517,1293.835C495.517,1280.835,495.517,1267.835,495.517,1254.835C495.517,1241.835,495.517,1228.835,495.517,1215.835C495.517,1202.835,495.517,1189.835,467.417,1178.775C439.318,1167.714,383.118,1158.593,355.019,1154.032L326.919,1149.471"/><path marker-end="url(#my-svg_flowchart-pointEnd)" style="fill:none;" class="edge-thickness-normal edge-pattern-solid flowchart-link LS-ReRoll LE-ShowError" id="L-ReRoll-ShowError-0" d="M419.366,2278.778L419.283,2283.945C419.199,2289.112,419.033,2299.445,412.757,2309.327C406.482,2319.208,394.097,2328.638,387.905,2333.353L381.713,2338.068"/><path marker-end="url(#my-svg_flowchart-pointEnd)" style="fill:none;" class="edge-thickness-normal edge-pattern-solid flowchart-link LS-ShowResult LE-SaveChat" id="L-ShowResult-SaveChat-0" d="M99.556,2222.197L99.556,2236.793C99.556,2251.39,99.556,2280.584,157.464,2301.138C215.372,2321.691,331.188,2333.603,389.096,2339.559L447.004,2345.515"/><path marker-end="url(#my-svg_flowchart-pointEnd)" style="fill:none;" class="edge-thickness-normal edge-pattern-solid flowchart-link LS-SaveChat LE-ChatUI" id="L-SaveChat-ChatUI-0" d="M560.311,2341.278L567.206,2336.028C574.101,2330.778,587.891,2320.278,594.786,2298.098C601.681,2275.918,601.681,2242.057,601.681,2209.28C601.681,2176.503,601.681,2144.809,601.681,2122.462C601.681,2100.115,601.681,2087.115,601.681,2073.031C601.681,2058.948,601.681,2043.781,601.681,2023.175C601.681,2002.568,601.681,1976.522,601.681,1951.558C601.681,1926.595,601.681,1902.715,601.681,1884.275C601.681,1865.835,601.681,1852.835,601.681,1839.835C601.681,1826.835,601.681,1813.835,601.681,1800.835C601.681,1787.835,601.681,1774.835,601.681,1761.835C601.681,1748.835,601.681,1735.835,601.681,1722.835C601.681,1709.835,601.681,1696.835,601.681,1683.835C601.681,1670.835,601.681,1657.835,601.681,1644.835C601.681,1631.835,601.681,1618.835,601.681,1605.835C601.681,1592.835,601.681,1579.835,601.681,1566.835C601.681,1553.835,601.681,1540.835,601.681,1527.835C601.681,1514.835,601.681,1501.835,601.681,1488.835C601.681,1475.835,601.681,1462.835,601.681,1449.835C601.681,1436.835,601.681,1423.835,601.681,1410.835C601.681,1397.835,601.681,1384.835,601.681,1371.835C601.681,1358.835,601.681,1345.835,601.681,1332.835C601.681,1319.835,601.681,1306.835,601.681,1293.835C601.681,1280.835,601.681,1267.835,601.681,1254.835C601.681,1241.835,601.681,1228.835,601.681,1215.835C601.681,1202.835,601.681,1189.835,601.681,1176.835C601.681,1163.835,601.681,1150.835,601.681,1137.835C601.681,1124.835,601.681,1111.835,601.681,1098.835C601.681,1085.835,601.681,1072.835,601.681,1059.835C601.681,1046.835,601.681,1033.835,601.681,1020.835C601.681,1007.835,601.681,994.835,601.681,981.835C601.681,968.835,601.681,955.835,601.681,942.835C601.681,929.835,601.681,916.835,601.681,903.835C601.681,890.835,601.681,877.835,567.854,866.163C534.026,854.49,466.372,844.145,432.544,838.972L398.717,833.799"/></g><g class="edgeLabels"><g class="edgeLabel"><g transform="translate(0, 0)" class="label"><rect height="0" width="0" ry="0" rx="0"/><text style=""><tspan class="row" x="0" dy="1em" xml:space="preserve"/></text></g></g><g transform="translate(346.636474609375, 255.33544921875)" class="edgeLabel"><g transform="translate(-7.6142578125, -6.5)" class="label"><rect height="13.000240325927734" width="15.217108726501465" ry="0" rx="0"/><text style=""><tspan class="row" x="0" dy="1em" xml:space="preserve">No</tspan></text></g></g><g class="edgeLabel"><g transform="translate(0, 0)" class="label"><rect height="0" width="0" ry="0" rx="0"/><text style=""><tspan class="row" x="0" dy="1em" xml:space="preserve"/></text></g></g><g transform="translate(276.86083984375, 546.33544921875)" class="edgeLabel"><g transform="translate(-19.51123046875, -6.5)" class="label"><rect height="13.000240325927734" width="38.977725982666016" ry="0" rx="0"/><text style=""><tspan class="row" x="0" dy="1em" xml:space="preserve">Google</tspan></text></g></g><g transform="translate(416.412109375, 546.33544921875)" class="edgeLabel"><g transform="translate(-25.6953125, -6.5)" class="label"><rect height="13.000240325927734" width="51.31344985961914" ry="0" rx="0"/><text style=""><tspan class="row" x="0" dy="1em" xml:space="preserve">Password</tspan></text></g></g><g class="edgeLabel"><g transform="translate(0, 0)" class="label"><rect height="0" width="0" ry="0" rx="0"/><text style=""><tspan class="row" x="0" dy="1em" xml:space="preserve"/></text></g></g><g class="edgeLabel"><g transform="translate(0, 0)" class="label"><rect height="0" width="0" ry="0" rx="0"/><text style=""><tspan class="row" x="0" dy="1em" xml:space="preserve"/></text></g></g><g transform="translate(524.2322998046875, 439.83544921875)" class="edgeLabel"><g transform="translate(-9.512939453125, -6.5)" class="label"><rect height="13.000240325927734" width="19.008407592773438" ry="0" rx="0"/><text style=""><tspan class="row" x="0" dy="1em" xml:space="preserve">Yes</tspan></text></g></g><g class="edgeLabel"><g transform="translate(0, 0)" class="label"><rect height="0" width="0" ry="0" rx="0"/><text style=""><tspan class="row" x="0" dy="1em" xml:space="preserve"/></text></g></g><g class="edgeLabel"><g transform="translate(0, 0)" class="label"><rect height="0" width="0" ry="0" rx="0"/><text style=""><tspan class="row" x="0" dy="1em" xml:space="preserve"/></text></g></g><g class="edgeLabel"><g transform="translate(0, 0)" class="label"><rect height="0" width="0" ry="0" rx="0"/><text style=""><tspan class="row" x="0" dy="1em" xml:space="preserve"/></text></g></g><g class="edgeLabel"><g transform="translate(0, 0)" class="label"><rect height="0" width="0" ry="0" rx="0"/><text style=""><tspan class="row" x="0" dy="1em" xml:space="preserve"/></text></g></g><g class="edgeLabel"><g transform="translate(0, 0)" class="label"><rect height="0" width="0" ry="0" rx="0"/><text style=""><tspan class="row" x="0" dy="1em" xml:space="preserve"/></text></g></g><g class="edgeLabel"><g transform="translate(0, 0)" class="label"><rect height="0" width="0" ry="0" rx="0"/><text style=""><tspan class="row" x="0" dy="1em" xml:space="preserve"/></text></g></g><g class="edgeLabel"><g transform="translate(0, 0)" class="label"><rect height="0" width="0" ry="0" rx="0"/><text style=""><tspan class="row" x="0" dy="1em" xml:space="preserve"/></text></g></g><g class="edgeLabel"><g transform="translate(0, 0)" class="label"><rect height="0" width="0" ry="0" rx="0"/><text style=""><tspan class="row" x="0" dy="1em" xml:space="preserve"/></text></g></g><g class="edgeLabel"><g transform="translate(0, 0)" class="label"><rect height="0" width="0" ry="0" rx="0"/><text style=""><tspan class="row" x="0" dy="1em" xml:space="preserve"/></text></g></g><g class="edgeLabel"><g transform="translate(0, 0)" class="label"><rect height="0" width="0" ry="0" rx="0"/><text style=""><tspan class="row" x="0" dy="1em" xml:space="preserve"/></text></g></g><g class="edgeLabel"><g transform="translate(0, 0)" class="label"><rect height="0" width="0" ry="0" rx="0"/><text style=""><tspan class="row" x="0" dy="1em" xml:space="preserve"/></text></g></g><g class="edgeLabel"><g transform="translate(0, 0)" class="label"><rect height="0" width="0" ry="0" rx="0"/><text style=""><tspan class="row" x="0" dy="1em" xml:space="preserve"/></text></g></g><g class="edgeLabel"><g transform="translate(0, 0)" class="label"><rect height="0" width="0" ry="0" rx="0"/><text style=""><tspan class="row" x="0" dy="1em" xml:space="preserve"/></text></g></g><g class="edgeLabel"><g transform="translate(0, 0)" class="label"><rect height="0" width="0" ry="0" rx="0"/><text style=""><tspan class="row" x="0" dy="1em" xml:space="preserve"/></text></g></g><g class="edgeLabel"><g transform="translate(0, 0)" class="label"><rect height="0" width="0" ry="0" rx="0"/><text style=""><tspan class="row" x="0" dy="1em" xml:space="preserve"/></text></g></g><g class="edgeLabel"><g transform="translate(0, 0)" class="label"><rect height="0" width="0" ry="0" rx="0"/><text style=""><tspan class="row" x="0" dy="1em" xml:space="preserve"/></text></g></g><g transform="translate(99.555908203125, 2028.61474609375)" class="edgeLabel"><g transform="translate(-9.512939453125, -6.5)" class="label"><rect height="13.000240325927734" width="19.008407592773438" ry="0" rx="0"/><text style=""><tspan class="row" x="0" dy="1em" xml:space="preserve">Yes</tspan></text></g></g><g class="edgeLabel"><g transform="translate(0, 0)" class="label"><rect height="0" width="0" ry="0" rx="0"/><text style=""><tspan class="row" x="0" dy="1em" xml:space="preserve"/></text></g></g><g transform="translate(350.580810546875, 2028.61474609375)" class="edgeLabel"><g transform="translate(-7.6142578125, -6.5)" class="label"><rect height="13.000240325927734" width="15.217108726501465" ry="0" rx="0"/><text style=""><tspan class="row" x="0" dy="1em" xml:space="preserve">No</tspan></text></g></g><g class="edgeLabel"><g transform="translate(0, 0)" class="label"><rect height="0" width="0" ry="0" rx="0"/><text style=""><tspan class="row" x="0" dy="1em" xml:space="preserve"/></text></g></g><g transform="translate(495.51708984375, 1605.83544921875)" class="edgeLabel"><g transform="translate(-9.512939453125, -6.5)" class="label"><rect height="13.000240325927734" width="19.008407592773438" ry="0" rx="0"/><text style=""><tspan class="row" x="0" dy="1em" xml:space="preserve">Yes</tspan></text></g></g><g transform="translate(418.8660888671875, 2309.7783203125)" class="edgeLabel"><g transform="translate(-7.6142578125, -6.5)" class="label"><rect height="13.000240325927734" width="15.217108726501465" ry="0" rx="0"/><text style=""><tspan class="row" x="0" dy="1em" xml:space="preserve">No</tspan></text></g></g><g class="edgeLabel"><g transform="translate(0, 0)" class="label"><rect height="0" width="0" ry="0" rx="0"/><text style=""><tspan class="row" x="0" dy="1em" xml:space="preserve"/></text></g></g><g class="edgeLabel"><g transform="translate(0, 0)" class="label"><rect height="0" width="0" ry="0" rx="0"/><text style=""><tspan class="row" x="0" dy="1em" xml:space="preserve"/></text></g></g></g><g class="nodes"><g transform="translate(406.3929443359375, 14)" data-id="Start" data-node="true" id="flowchart-Start-0" class="node default default flowchart-label"><rect height="28" width="125.453125" y="-14" x="-62.7265625" ry="14" rx="14" style=""/><g transform="translate(0, -6.5)" style="" class="label"><rect/><text style=""><tspan class="row" x="0" dy="1em" xml:space="preserve">User Opens Baram</tspan></text></g></g><g transform="translate(406.3929443359375, 150.917724609375)" data-id="ConnectWallet" data-node="true" id="flowchart-ConnectWallet-1" class="node default default flowchart-label"><polygon style="" transform="translate(-72.917724609375,72.917724609375)" class="label-container" points="72.917724609375,0 145.83544921875,-72.917724609375 72.917724609375,-145.83544921875 0,-72.917724609375"/><g transform="translate(0, -6.5)" style="" class="label"><rect/><text style=""><tspan class="row" x="0" dy="1em" xml:space="preserve">Wallet Connected?</tspan></text></g></g><g transform="translate(346.636474609375, 300.83544921875)" data-id="ShowLock" data-node="true" id="flowchart-ShowLock-3" class="node default default flowchart-label"><rect height="28" width="114.60302734375" y="-14" x="-57.301513671875" ry="0" rx="0" style="" class="basic label-container"/><g transform="translate(0, -6.5)" style="" class="label"><rect/><text style=""><tspan class="row" x="0" dy="1em" xml:space="preserve">Show Lock Screen</tspan></text></g></g><g transform="translate(346.636474609375, 439.83544921875)" data-id="ConnectMethod" data-node="true" id="flowchart-ConnectMethod-5" class="node default default flowchart-label"><polygon style="" transform="translate(-75,75)" class="label-container" points="75,0 150,-75 75,-150 0,-75"/><g transform="translate(0, -6.5)" style="" class="label"><rect/><text style=""><tspan class="row" x="0" dy="1em" xml:space="preserve">Connection Method</tspan></text></g></g><g transform="translate(276.86083984375, 591.83544921875)" data-id="ZkLogin" data-node="true" id="flowchart-ZkLogin-7" class="node default default flowchart-label"><rect height="28" width="56.84765625" y="-14" x="-28.423828125" ry="0" rx="0" style="" class="basic label-container"/><g transform="translate(0, -6.5)" style="" class="label"><rect/><text style=""><tspan class="row" x="0" dy="1em" xml:space="preserve">zkLogin</tspan></text></g></g><g transform="translate(416.412109375, 591.83544921875)" data-id="SelfCustody" data-node="true" id="flowchart-SelfCustody-9" class="node default default flowchart-label"><rect height="28" width="122.2548828125" y="-14" x="-61.12744140625" ry="0" rx="0" style="" class="basic label-container"/><g transform="translate(0, -6.5)" style="" class="label"><rect/><text style=""><tspan class="row" x="0" dy="1em" xml:space="preserve">Self-Custody Wallet</tspan></text></g></g><g transform="translate(346.636474609375, 669.83544921875)" data-id="WalletReady" data-node="true" id="flowchart-WalletReady-11" class="node default default flowchart-label"><rect height="28" width="87.24267578125" y="-14" x="-43.621337890625" ry="0" rx="0" style="" class="basic label-container"/><g transform="translate(0, -6.5)" style="" class="label"><rect/><text style=""><tspan class="row" x="0" dy="1em" xml:space="preserve">Wallet Ready</tspan></text></g></g><g transform="translate(346.636474609375, 747.83544921875)" data-id="LoadHistory" data-node="true" id="flowchart-LoadHistory-17" class="node default default flowchart-label"><rect height="28" width="173.25537109375" y="-14" x="-86.627685546875" ry="0" rx="0" style="" class="basic label-container"/><g transform="translate(0, -6.5)" style="" class="label"><rect/><text style=""><tspan class="row" x="0" dy="1em" xml:space="preserve">Load Encrypted Chat History</tspan></text></g></g><g transform="translate(346.636474609375, 825.83544921875)" data-id="ChatUI" data-node="true" id="flowchart-ChatUI-19" class="node default default flowchart-label"><rect height="28" width="93.6826171875" y="-14" x="-46.84130859375" ry="0" rx="0" style="" class="basic label-container"/><g transform="translate(0, -6.5)" style="" class="label"><rect/><text style=""><tspan class="row" x="0" dy="1em" xml:space="preserve">Chat Interface</tspan></text></g></g><g transform="translate(255.22900390625, 903.83544921875)" data-id="SelectModel" data-node="true" id="flowchart-SelectModel-21" class="node default default flowchart-label"><rect height="28" width="99.734375" y="-14" x="-49.8671875" ry="0" rx="0" style="" class="basic label-container"/><g transform="translate(0, -6.5)" style="" class="label"><rect/><text style=""><tspan class="row" x="0" dy="1em" xml:space="preserve">Select AI Model</tspan></text></g></g><g transform="translate(255.22900390625, 981.83544921875)" data-id="TypePrompt" data-node="true" id="flowchart-TypePrompt-23" class="node default default flowchart-label"><rect height="28" width="84.91064453125" y="-14" x="-42.455322265625" ry="0" rx="0" style="" class="basic label-container"/><g transform="translate(0, -6.5)" style="" class="label"><rect/><text style=""><tspan class="row" x="0" dy="1em" xml:space="preserve">Type Prompt</tspan></text></g></g><g transform="translate(255.22900390625, 1059.83544921875)" data-id="Submit" data-node="true" id="flowchart-Submit-25" class="node default default flowchart-label"><rect height="28" width="54.7080078125" y="-14" x="-27.35400390625" ry="0" rx="0" style="" class="basic label-container"/><g transform="translate(0, -6.5)" style="" class="label"><rect/><text style=""><tspan class="row" x="0" dy="1em" xml:space="preserve">Submit</tspan></text></g></g><g transform="translate(255.22900390625, 1137.83544921875)" data-id="AutoAssign" data-node="true" id="flowchart-AutoAssign-27" class="node default default flowchart-label"><rect height="28" width="132.91650390625" y="-14" x="-66.458251953125" ry="0" rx="0" style="fill:#e8f5e9;stroke:#2e7d32;" class="basic label-container"/><g transform="translate(0, -6.5)" style="" class="label"><rect/><text style=""><tspan class="row" x="0" dy="1em" xml:space="preserve">Auto-Assign Executor</tspan></text></g></g><g transform="translate(186.9437255859375, 1215.83544921875)" data-id="FetchPubKey" data-node="true" id="flowchart-FetchPubKey-29" class="node default default flowchart-label"><rect height="28" width="182.6279296875" y="-14" x="-91.31396484375" ry="0" rx="0" style="" class="basic label-container"/><g transform="translate(0, -6.5)" style="" class="label"><rect/><text style=""><tspan class="row" x="0" dy="1em" xml:space="preserve">Fetch Executor RSA Public Key</tspan></text></g></g><g transform="translate(186.9437255859375, 1293.83544921875)" data-id="GenAES" data-node="true" id="flowchart-GenAES-31" class="node default default flowchart-label"><rect height="28" width="170.29052734375" y="-14" x="-85.145263671875" ry="0" rx="0" style="fill:#e3f2fd;stroke:#1565c0;" class="basic label-container"/><g transform="translate(0, -6.5)" style="" class="label"><rect/><text style=""><tspan class="row" x="0" dy="1em" xml:space="preserve">Generate AES-256-GCM Key</tspan></text></g></g><g transform="translate(186.9437255859375, 1371.83544921875)" data-id="Encrypt" data-node="true" id="flowchart-Encrypt-33" class="node default default flowchart-label"><rect height="28" width="203.14111328125" y="-14" x="-101.570556640625" ry="0" rx="0" style="fill:#e3f2fd;stroke:#1565c0;" class="basic label-container"/><g transform="translate(0, -6.5)" style="" class="label"><rect/><text style=""><tspan class="row" x="0" dy="1em" xml:space="preserve">E2E Encrypt Prompt — AES + RSA</tspan></text></g></g><g transform="translate(186.9437255859375, 1449.83544921875)" data-id="BuildTx" data-node="true" id="flowchart-BuildTx-35" class="node default default flowchart-label"><rect height="28" width="163.58203125" y="-14" x="-81.791015625" ry="0" rx="0" style="" class="basic label-container"/><g transform="translate(0, -6.5)" style="" class="label"><rect/><text style=""><tspan class="row" x="0" dy="1em" xml:space="preserve">Build On-Chain Transaction</tspan></text></g></g><g transform="translate(186.9437255859375, 1527.83544921875)" data-id="SignTx" data-node="true" id="flowchart-SignTx-37" class="node default default flowchart-label"><rect height="28" width="105.4453125" y="-14" x="-52.72265625" ry="0" rx="0" style="" class="basic label-container"/><g transform="translate(0, -6.5)" style="" class="label"><rect/><text style=""><tspan class="row" x="0" dy="1em" xml:space="preserve">Sign Transaction</tspan></text></g></g><g transform="translate(186.9437255859375, 1605.83544921875)" data-id="SubmitTx" data-node="true" id="flowchart-SubmitTx-39" class="node default default flowchart-label"><rect height="28" width="169.76416015625" y="-14" x="-84.882080078125" ry="0" rx="0" style="" class="basic label-container"/><g transform="translate(0, -6.5)" style="" class="label"><rect/><text style=""><tspan class="row" x="0" dy="1em" xml:space="preserve">Submit to Nasun Blockchain</tspan></text></g></g><g transform="translate(186.9437255859375, 1683.83544921875)" data-id="EscrowCreated" data-node="true" id="flowchart-EscrowCreated-41" class="node default default flowchart-label"><rect height="28" width="152.111328125" y="-14" x="-76.0556640625" ry="0" rx="0" style="fill:#fff3e0;stroke:#e65100;" class="basic label-container"/><g transform="translate(0, -6.5)" style="" class="label"><rect/><text style=""><tspan class="row" x="0" dy="1em" xml:space="preserve">NUSDC Locked in Escrow</tspan></text></g></g><g transform="translate(186.9437255859375, 1761.83544921875)" data-id="CallExecutor" data-node="true" id="flowchart-CallExecutor-43" class="node default default flowchart-label"><rect height="28" width="183.91162109375" y="-14" x="-91.955810546875" ry="0" rx="0" style="" class="basic label-container"/><g transform="translate(0, -6.5)" style="" class="label"><rect/><text style=""><tspan class="row" x="0" dy="1em" xml:space="preserve">Send Encrypted Prompt to TEE</tspan></text></g></g><g transform="translate(186.9437255859375, 1839.83544921875)" data-id="WaitResult" data-node="true" id="flowchart-WaitResult-45" class="node default default flowchart-label"><rect height="28" width="156.53515625" y="-14" x="-78.267578125" ry="0" rx="0" style="" class="basic label-container"/><g transform="translate(0, -6.5)" style="" class="label"><rect/><text style=""><tspan class="row" x="0" dy="1em" xml:space="preserve">Waiting for TEE Execution</tspan></text></g></g><g transform="translate(186.9437255859375, 1950.47509765625)" data-id="ResultOk" data-node="true" id="flowchart-ResultOk-47" class="node default default flowchart-label"><polygon style="" transform="translate(-46.6396484375,46.6396484375)" class="label-container" points="46.6396484375,0 93.279296875,-46.6396484375 46.6396484375,-93.279296875 0,-46.6396484375"/><g transform="translate(0, -6.5)" style="" class="label"><rect/><text style=""><tspan class="row" x="0" dy="1em" xml:space="preserve">Success?</tspan></text></g></g><g transform="translate(99.555908203125, 2074.11474609375)" data-id="DecryptResp" data-node="true" id="flowchart-DecryptResp-49" class="node default default flowchart-label"><rect height="28" width="199.11181640625" y="-14" x="-99.555908203125" ry="0" rx="0" style="fill:#e3f2fd;stroke:#1565c0;" class="basic label-container"/><g transform="translate(0, -6.5)" style="" class="label"><rect/><text style=""><tspan class="row" x="0" dy="1em" xml:space="preserve">Decrypt E2E Encrypted Response</tspan></text></g></g><g transform="translate(99.555908203125, 2208.196533203125)" data-id="ShowResult" data-node="true" id="flowchart-ShowResult-51" class="node default default flowchart-label"><rect height="28" width="126.37109375" y="-14" x="-63.185546875" ry="0" rx="0" style="fill:#e8f5e9;stroke:#2e7d32;" class="basic label-container"/><g transform="translate(0, -6.5)" style="" class="label"><rect/><text style=""><tspan class="row" x="0" dy="1em" xml:space="preserve">Display AI Response</tspan></text></g></g><g transform="translate(350.580810546875, 2074.11474609375)" data-id="AutoCancel" data-node="true" id="flowchart-AutoCancel-53" class="node default default flowchart-label"><rect height="28" width="202.93798828125" y="-14" x="-101.468994140625" ry="0" rx="0" style="fill:#fce4ec;stroke:#c62828;" class="basic label-container"/><g transform="translate(0, -6.5)" style="" class="label"><rect/><text style=""><tspan class="row" x="0" dy="1em" xml:space="preserve">Auto-Cancel TX — Release Escrow</tspan></text></g></g><g transform="translate(418.8660888671875, 2208.196533203125)" data-id="ReRoll" data-node="true" id="flowchart-ReRoll-55" class="node default default flowchart-label"><polygon style="" transform="translate(-70.081787109375,70.081787109375)" class="label-container" points="70.081787109375,0 140.16357421875,-70.081787109375 70.081787109375,-140.16357421875 0,-70.081787109375"/><g transform="translate(0, -6.5)" style="" class="label"><rect/><text style=""><tspan class="row" x="0" dy="1em" xml:space="preserve">Re-Roll Available?</tspan></text></g></g><g transform="translate(359.109619140625, 2355.2783203125)" data-id="ShowError" data-node="true" id="flowchart-ShowError-59" class="node default default flowchart-label"><rect height="28" width="86.3330078125" y="-14" x="-43.16650390625" ry="0" rx="0" style="" class="basic label-container"/><g transform="translate(0, -6.5)" style="" class="label"><rect/><text style=""><tspan class="row" x="0" dy="1em" xml:space="preserve">Display Error</tspan></text></g></g><g transform="translate(541.924560546875, 2355.2783203125)" data-id="SaveChat" data-node="true" id="flowchart-SaveChat-61" class="node default default flowchart-label"><rect height="28" width="179.296875" y="-14" x="-89.6484375" ry="0" rx="0" style="" class="basic label-container"/><g transform="translate(0, -6.5)" style="" class="label"><rect/><text style=""><tspan class="row" x="0" dy="1em" xml:space="preserve">Save to Encrypted IndexedDB</tspan></text></g></g></g></g></g></svg>