<svg aria-roledescription="flowchart-v2" role="graphics-document document" viewBox="-8 -8 440.2749938964844 2406.2783203125" style="background-color: transparent;" xmlns:xlink="http://www.w3.org/1999/xlink" xmlns="http://www.w3.org/2000/svg" width="440.2749938964844" id="my-svg"><style>#my-svg{font-family:Arial,Helvetica,sans-serif;font-size:11px;fill:#333;}#my-svg .error-icon{fill:#552222;}#my-svg .error-text{fill:#552222;stroke:#552222;}#my-svg .edge-thickness-normal{stroke-width:2px;}#my-svg .edge-thickness-thick{stroke-width:3.5px;}#my-svg .edge-pattern-solid{stroke-dasharray:0;}#my-svg .edge-pattern-dashed{stroke-dasharray:3;}#my-svg .edge-pattern-dotted{stroke-dasharray:2;}#my-svg .marker{fill:#333333;stroke:#333333;}#my-svg .marker.cross{stroke:#333333;}#my-svg svg{font-family:Arial,Helvetica,sans-serif;font-size:11px;}#my-svg .label{font-family:Arial,Helvetica,sans-serif;color:#333;}#my-svg .cluster-label text{fill:#333;}#my-svg .cluster-label span,#my-svg p{color:#333;}#my-svg .label text,#my-svg span,#my-svg p{fill:#333;color:#333;}#my-svg .node rect,#my-svg .node circle,#my-svg .node ellipse,#my-svg .node polygon,#my-svg .node path{fill:#ECECFF;stroke:#9370DB;stroke-width:1px;}#my-svg .flowchart-label text{text-anchor:middle;}#my-svg .node .katex path{fill:#000;stroke:#000;stroke-width:1px;}#my-svg .node .label{text-align:center;}#my-svg .node.clickable{cursor:pointer;}#my-svg .arrowheadPath{fill:#333333;}#my-svg .edgePath .path{stroke:#333333;stroke-width:2.0px;}#my-svg .flowchart-link{stroke:#333333;fill:none;}#my-svg .edgeLabel{background-color:#e8e8e8;text-align:center;}#my-svg .edgeLabel rect{opacity:0.5;background-color:#e8e8e8;fill:#e8e8e8;}#my-svg .labelBkg{background-color:rgba(232, 232, 232, 0.5);}#my-svg .cluster rect{fill:#ffffde;stroke:#aaaa33;stroke-width:1px;}#my-svg .cluster text{fill:#333;}#my-svg .cluster span,#my-svg p{color:#333;}#my-svg div.mermaidTooltip{position:absolute;text-align:center;max-width:200px;padding:2px;font-family:Arial,Helvetica,sans-serif;font-size:12px;background:hsl(80, 100%, 96.2745098039%);border:1px solid #aaaa33;border-radius:2px;pointer-events:none;z-index:100;}#my-svg .flowchartTitleText{text-anchor:middle;font-size:18px;fill:#333;}#my-svg :root{--mermaid-font-family:"trebuchet ms",verdana,arial,sans-serif;}</style><g><marker orient="auto" markerHeight="12" markerWidth="12" markerUnits="userSpaceOnUse" refY="5" refX="6" viewBox="0 0 10 10" class="marker flowchart" id="my-svg_flowchart-pointEnd"><path style="stroke-width: 1; stroke-dasharray: 1, 0;" class="arrowMarkerPath" d="M 0 0 L 10 5 L 0 10 z"/></marker><marker orient="auto" markerHeight="12" markerWidth="12" markerUnits="userSpaceOnUse" refY="5" refX="4.5" viewBox="0 0 10 10" class="marker flowchart" id="my-svg_flowchart-pointStart"><path style="stroke-width: 1; stroke-dasharray: 1, 0;" class="arrowMarkerPath" d="M 0 5 L 10 10 L 10 0 z"/></marker><marker orient="auto" markerHeight="11" markerWidth="11" markerUnits="userSpaceOnUse" refY="5" refX="11" viewBox="0 0 10 10" class="marker flowchart" id="my-svg_flowchart-circleEnd"><circle style="stroke-width: 1; stroke-dasharray: 1, 0;" class="arrowMarkerPath" r="5" cy="5" cx="5"/></marker><marker orient="auto" markerHeight="11" markerWidth="11" markerUnits="userSpaceOnUse" refY="5" refX="-1" viewBox="0 0 10 10" class="marker flowchart" id="my-svg_flowchart-circleStart"><circle style="stroke-width: 1; stroke-dasharray: 1, 0;" class="arrowMarkerPath" r="5" cy="5" cx="5"/></marker><marker orient="auto" markerHeight="11" markerWidth="11" markerUnits="userSpaceOnUse" refY="5.2" refX="12" viewBox="0 0 11 11" class="marker cross flowchart" id="my-svg_flowchart-crossEnd"><path style="stroke-width: 2; stroke-dasharray: 1, 0;" class="arrowMarkerPath" d="M 1,1 l 9,9 M 10,1 l -9,9"/></marker><marker orient="auto" markerHeight="11" markerWidth="11" markerUnits="userSpaceOnUse" refY="5.2" refX="-1" viewBox="0 0 11 11" class="marker cross flowchart" id="my-svg_flowchart-crossStart"><path style="stroke-width: 2; stroke-dasharray: 1, 0;" class="arrowMarkerPath" d="M 1,1 l 9,9 M 10,1 l -9,9"/></marker><g class="root"><g class="clusters"/><g class="edgePaths"><path marker-end="url(#my-svg_flowchart-pointEnd)" style="fill:none;" class="edge-thickness-normal edge-pattern-solid flowchart-link LS-Start LE-ConnectWallet" id="L-Start-ConnectWallet-0" d="M261.916,28L261.916,32.167C261.916,36.333,261.916,44.667,261.982,52.2C262.048,59.734,262.18,66.467,262.246,69.834L262.312,73.201"/><path marker-end="url(#my-svg_flowchart-pointEnd)" style="fill:none;" class="edge-thickness-normal edge-pattern-solid flowchart-link LS-ConnectWallet LE-ShowLock" id="L-ConnectWallet-ShowLock-0" d="M235.875,197.795L230.256,207.385C224.636,216.975,213.398,236.155,207.778,250.112C202.159,264.069,202.159,272.802,202.159,277.169L202.159,281.535"/><path marker-end="url(#my-svg_flowchart-pointEnd)" style="fill:none;" class="edge-thickness-normal edge-pattern-solid flowchart-link LS-ShowLock LE-ConnectMethod" id="L-ShowLock-ConnectMethod-0" d="M202.159,314.835L202.159,319.002C202.159,323.169,202.159,331.502,202.225,339.036C202.291,346.569,202.423,353.303,202.489,356.67L202.555,360.036"/><path marker-end="url(#my-svg_flowchart-pointEnd)" style="fill:none;" class="edge-thickness-normal edge-pattern-solid flowchart-link LS-ConnectMethod LE-ZkLogin" id="L-ConnectMethod-ZkLogin-0" d="M172.972,485.648L166.207,495.763C159.442,505.877,145.913,526.106,139.148,540.588C132.384,555.069,132.384,563.802,132.384,568.169L132.384,572.535"/><path marker-end="url(#my-svg_flowchart-pointEnd)" style="fill:none;" class="edge-thickness-normal edge-pattern-solid flowchart-link LS-ConnectMethod LE-SelfCustody" id="L-ConnectMethod-SelfCustody-0" d="M232.347,485.648L238.945,495.763C245.543,505.877,258.739,526.106,265.337,540.588C271.935,555.069,271.935,563.802,271.935,568.169L271.935,572.535"/><path marker-end="url(#my-svg_flowchart-pointEnd)" style="fill:none;" class="edge-thickness-normal edge-pattern-solid flowchart-link LS-ZkLogin LE-WalletReady" id="L-ZkLogin-WalletReady-0" d="M132.384,605.835L132.384,610.002C132.384,614.169,132.384,622.502,147.521,630.899C162.659,639.296,192.934,647.757,208.071,651.988L223.209,656.218"/><path marker-end="url(#my-svg_flowchart-pointEnd)" style="fill:none;" class="edge-thickness-normal edge-pattern-solid flowchart-link LS-SelfCustody LE-WalletReady" id="L-SelfCustody-WalletReady-0" d="M271.935,605.835L271.935,610.002C271.935,614.169,271.935,622.502,271.935,629.952C271.935,637.402,271.935,643.969,271.935,647.252L271.935,650.535"/><path marker-end="url(#my-svg_flowchart-pointEnd)" style="fill:none;" class="edge-thickness-normal edge-pattern-solid flowchart-link LS-ConnectWallet LE-WalletReady" id="L-ConnectWallet-WalletReady-0" d="M301.076,185.675L314.189,197.285C327.302,208.895,353.529,232.115,366.642,251.309C379.755,270.502,379.755,285.669,379.755,299.752C379.755,313.835,379.755,326.835,379.755,350.002C379.755,373.169,379.755,406.502,379.755,440.919C379.755,475.335,379.755,510.835,379.755,536.169C379.755,561.502,379.755,576.669,379.755,590.752C379.755,604.835,379.755,617.835,369.066,628.202C358.378,638.568,337.001,646.3,326.312,650.166L315.623,654.033"/><path marker-end="url(#my-svg_flowchart-pointEnd)" style="fill:none;" class="edge-thickness-normal edge-pattern-solid flowchart-link LS-WalletReady LE-LoadHistory" id="L-WalletReady-LoadHistory-0" d="M271.935,683.835L271.935,688.002C271.935,692.169,271.935,700.502,271.935,707.952C271.935,715.402,271.935,721.969,271.935,725.252L271.935,728.535"/><path marker-end="url(#my-svg_flowchart-pointEnd)" style="fill:none;" class="edge-thickness-normal edge-pattern-solid flowchart-link LS-LoadHistory LE-ChatUI" id="L-LoadHistory-ChatUI-0" d="M271.935,761.835L271.935,766.002C271.935,770.169,271.935,778.502,271.935,785.952C271.935,793.402,271.935,799.969,271.935,803.252L271.935,806.535"/><path marker-end="url(#my-svg_flowchart-pointEnd)" style="fill:none;" class="edge-thickness-normal edge-pattern-solid flowchart-link LS-ChatUI LE-SelectModel" id="L-ChatUI-SelectModel-0" d="M253.074,839.835L247.461,844.002C241.847,848.169,230.621,856.502,225.007,863.952C219.394,871.402,219.394,877.969,219.394,881.252L219.394,884.535"/><path marker-end="url(#my-svg_flowchart-pointEnd)" style="fill:none;" class="edge-thickness-normal edge-pattern-solid flowchart-link LS-SelectModel LE-TypePrompt" id="L-SelectModel-TypePrompt-0" d="M219.394,917.835L219.394,922.002C219.394,926.169,219.394,934.502,219.394,941.952C219.394,949.402,219.394,955.969,219.394,959.252L219.394,962.535"/><path marker-end="url(#my-svg_flowchart-pointEnd)" style="fill:none;" class="edge-thickness-normal edge-pattern-solid flowchart-link LS-TypePrompt LE-Submit" id="L-TypePrompt-Submit-0" d="M219.394,995.835L219.394,1000.002C219.394,1004.169,219.394,1012.502,219.394,1019.952C219.394,1027.402,219.394,1033.969,219.394,1037.252L219.394,1040.535"/><path marker-end="url(#my-svg_flowchart-pointEnd)" style="fill:none;" class="edge-thickness-normal edge-pattern-solid flowchart-link LS-Submit LE-AutoAssign" id="L-Submit-AutoAssign-0" d="M219.394,1073.835L219.394,1078.002C219.394,1082.169,219.394,1090.502,219.394,1097.952C219.394,1105.402,219.394,1111.969,219.394,1115.252L219.394,1118.535"/><path marker-end="url(#my-svg_flowchart-pointEnd)" style="fill:none;" class="edge-thickness-normal edge-pattern-solid flowchart-link LS-AutoAssign LE-FetchPubKey" id="L-AutoAssign-FetchPubKey-0" d="M183.039,1151.835L172.219,1156.002C161.399,1160.169,139.759,1168.502,128.939,1175.952C118.12,1183.402,118.12,1189.969,118.12,1193.252L118.12,1196.535"/><path marker-end="url(#my-svg_flowchart-pointEnd)" style="fill:none;" class="edge-thickness-normal edge-pattern-solid flowchart-link LS-FetchPubKey LE-GenAES" id="L-FetchPubKey-GenAES-0" d="M118.12,1229.835L118.12,1234.002C118.12,1238.169,118.12,1246.502,118.12,1253.952C118.12,1261.402,118.12,1267.969,118.12,1271.252L118.12,1274.535"/><path marker-end="url(#my-svg_flowchart-pointEnd)" style="fill:none;" class="edge-thickness-normal edge-pattern-solid flowchart-link LS-GenAES LE-Encrypt" id="L-GenAES-Encrypt-0" d="M118.12,1307.835L118.12,1312.002C118.12,1316.169,118.12,1324.502,118.12,1331.952C118.12,1339.402,118.12,1345.969,118.12,1349.252L118.12,1352.535"/><path marker-end="url(#my-svg_flowchart-pointEnd)" style="fill:none;" class="edge-thickness-normal edge-pattern-solid flowchart-link LS-Encrypt LE-BuildTx" id="L-Encrypt-BuildTx-0" d="M118.12,1385.835L118.12,1390.002C118.12,1394.169,118.12,1402.502,118.12,1409.952C118.12,1417.402,118.12,1423.969,118.12,1427.252L118.12,1430.535"/><path marker-end="url(#my-svg_flowchart-pointEnd)" style="fill:none;" class="edge-thickness-normal edge-pattern-solid flowchart-link LS-BuildTx LE-SignTx" id="L-BuildTx-SignTx-0" d="M118.12,1463.835L118.12,1468.002C118.12,1472.169,118.12,1480.502,118.12,1487.952C118.12,1495.402,118.12,1501.969,118.12,1505.252L118.12,1508.535"/><path marker-end="url(#my-svg_flowchart-pointEnd)" style="fill:none;" class="edge-thickness-normal edge-pattern-solid flowchart-link LS-SignTx LE-SubmitTx" id="L-SignTx-SubmitTx-0" d="M118.12,1541.835L118.12,1547.085C118.12,1552.335,118.12,1562.835,118.12,1572.452C118.12,1582.069,118.12,1590.802,118.12,1595.169L118.12,1599.535"/><path marker-end="url(#my-svg_flowchart-pointEnd)" style="fill:none;" class="edge-thickness-normal edge-pattern-solid flowchart-link LS-SubmitTx LE-EscrowCreated" id="L-SubmitTx-EscrowCreated-0" d="M118.12,1632.835L118.12,1637.002C118.12,1641.169,118.12,1649.502,118.12,1656.952C118.12,1664.402,118.12,1670.969,118.12,1674.252L118.12,1677.535"/><path marker-end="url(#my-svg_flowchart-pointEnd)" style="fill:none;" class="edge-thickness-normal edge-pattern-solid flowchart-link LS-EscrowCreated LE-CallExecutor" id="L-EscrowCreated-CallExecutor-0" d="M118.12,1710.835L118.12,1715.002C118.12,1719.169,118.12,1727.502,118.12,1734.952C118.12,1742.402,118.12,1748.969,118.12,1752.252L118.12,1755.535"/><path marker-end="url(#my-svg_flowchart-pointEnd)" style="fill:none;" class="edge-thickness-normal edge-pattern-solid flowchart-link LS-CallExecutor LE-WaitResult" id="L-CallExecutor-WaitResult-0" d="M118.12,1788.835L118.12,1793.002C118.12,1797.169,118.12,1805.502,118.12,1812.952C118.12,1820.402,118.12,1826.969,118.12,1830.252L118.12,1833.535"/><path marker-end="url(#my-svg_flowchart-pointEnd)" style="fill:none;" class="edge-thickness-normal edge-pattern-solid flowchart-link LS-WaitResult LE-ResultOk" id="L-WaitResult-ResultOk-0" d="M118.12,1866.835L118.12,1871.002C118.12,1875.169,118.12,1883.502,118.186,1891.036C118.252,1898.569,118.384,1905.303,118.45,1908.67L118.516,1912.036"/><path marker-end="url(#my-svg_flowchart-pointEnd)" style="fill:none;" class="edge-thickness-normal edge-pattern-solid flowchart-link LS-ResultOk LE-DecryptResp" id="L-ResultOk-DecryptResp-0" d="M109.666,2001.662L107.981,2008.32C106.296,2014.979,102.926,2028.297,101.241,2048.67C99.556,2069.042,99.556,2096.469,99.556,2110.183L99.556,2123.897"/><path marker-end="url(#my-svg_flowchart-pointEnd)" style="fill:none;" class="edge-thickness-normal edge-pattern-solid flowchart-link LS-DecryptResp LE-ShowResult" id="L-DecryptResp-ShowResult-0" d="M99.556,2157.197L99.556,2171.793C99.556,2186.39,99.556,2215.584,99.556,2234.548C99.556,2253.512,99.556,2262.245,99.556,2266.612L99.556,2270.978"/><path marker-end="url(#my-svg_flowchart-pointEnd)" style="fill:none;" class="edge-thickness-normal edge-pattern-solid flowchart-link LS-ResultOk LE-ReRoll" id="L-ResultOk-ReRoll-0" d="M145.87,1983.365L159.548,1993.073C173.226,2002.781,200.582,2022.198,223.435,2042.11C246.287,2062.022,264.636,2082.43,273.811,2092.634L282.986,2102.838"/><path marker-end="url(#my-svg_flowchart-pointEnd)" style="fill:none;" class="edge-thickness-normal edge-pattern-solid flowchart-link LS-ReRoll LE-AutoAssign" id="L-ReRoll-AutoAssign-0" d="M338.694,2092.615L341.741,2084.115C344.789,2075.615,350.883,2058.615,353.931,2037.092C356.978,2015.568,356.978,1989.522,356.978,1964.558C356.978,1939.595,356.978,1915.715,356.978,1897.275C356.978,1878.835,356.978,1865.835,356.978,1852.835C356.978,1839.835,356.978,1826.835,356.978,1813.835C356.978,1800.835,356.978,1787.835,356.978,1774.835C356.978,1761.835,356.978,1748.835,356.978,1735.835C356.978,1722.835,356.978,1709.835,356.978,1696.835C356.978,1683.835,356.978,1670.835,356.978,1657.835C356.978,1644.835,356.978,1631.835,356.978,1617.752C356.978,1603.669,356.978,1588.502,356.978,1573.335C356.978,1558.169,356.978,1543.002,356.978,1528.919C356.978,1514.835,356.978,1501.835,356.978,1488.835C356.978,1475.835,356.978,1462.835,356.978,1449.835C356.978,1436.835,356.978,1423.835,356.978,1410.835C356.978,1397.835,356.978,1384.835,356.978,1371.835C356.978,1358.835,356.978,1345.835,356.978,1332.835C356.978,1319.835,356.978,1306.835,356.978,1293.835C356.978,1280.835,356.978,1267.835,356.978,1254.835C356.978,1241.835,356.978,1228.835,356.978,1215.835C356.978,1202.835,356.978,1189.835,343.129,1179.41C329.279,1168.984,301.581,1161.132,287.731,1157.207L273.882,1153.281"/><path marker-end="url(#my-svg_flowchart-pointEnd)" style="fill:none;" class="edge-thickness-normal edge-pattern-solid flowchart-link LS-ReRoll LE-ShowError" id="L-ReRoll-ShowError-0" d="M319.694,2213.778L319.61,2218.945C319.527,2224.112,319.36,2234.445,319.277,2243.978C319.194,2253.512,319.194,2262.245,319.194,2266.612L319.194,2270.978"/><path marker-end="url(#my-svg_flowchart-pointEnd)" style="fill:none;" class="edge-thickness-normal edge-pattern-solid flowchart-link LS-ShowResult LE-SaveChat" id="L-ShowResult-SaveChat-0" d="M99.556,2304.278L99.556,2308.445C99.556,2312.612,99.556,2320.945,117.111,2329.083C134.666,2337.222,169.776,2345.165,187.331,2349.137L204.886,2353.109"/><path marker-end="url(#my-svg_flowchart-pointEnd)" style="fill:none;" class="edge-thickness-normal edge-pattern-solid flowchart-link LS-SaveChat LE-ChatUI" id="L-SaveChat-ChatUI-0" d="M326.621,2354.278L342.897,2350.112C359.173,2345.945,391.724,2337.612,408,2326.945C424.275,2316.278,424.275,2303.278,424.275,2289.195C424.275,2275.112,424.275,2259.945,424.275,2235.431C424.275,2210.918,424.275,2177.057,424.275,2143.197C424.275,2109.336,424.275,2075.475,424.275,2045.522C424.275,2015.568,424.275,1989.522,424.275,1964.558C424.275,1939.595,424.275,1915.715,424.275,1897.275C424.275,1878.835,424.275,1865.835,424.275,1852.835C424.275,1839.835,424.275,1826.835,424.275,1813.835C424.275,1800.835,424.275,1787.835,424.275,1774.835C424.275,1761.835,424.275,1748.835,424.275,1735.835C424.275,1722.835,424.275,1709.835,424.275,1696.835C424.275,1683.835,424.275,1670.835,424.275,1657.835C424.275,1644.835,424.275,1631.835,424.275,1617.752C424.275,1603.669,424.275,1588.502,424.275,1573.335C424.275,1558.169,424.275,1543.002,424.275,1528.919C424.275,1514.835,424.275,1501.835,424.275,1488.835C424.275,1475.835,424.275,1462.835,424.275,1449.835C424.275,1436.835,424.275,1423.835,424.275,1410.835C424.275,1397.835,424.275,1384.835,424.275,1371.835C424.275,1358.835,424.275,1345.835,424.275,1332.835C424.275,1319.835,424.275,1306.835,424.275,1293.835C424.275,1280.835,424.275,1267.835,424.275,1254.835C424.275,1241.835,424.275,1228.835,424.275,1215.835C424.275,1202.835,424.275,1189.835,424.275,1176.835C424.275,1163.835,424.275,1150.835,424.275,1137.835C424.275,1124.835,424.275,1111.835,424.275,1098.835C424.275,1085.835,424.275,1072.835,424.275,1059.835C424.275,1046.835,424.275,1033.835,424.275,1020.835C424.275,1007.835,424.275,994.835,424.275,981.835C424.275,968.835,424.275,955.835,424.275,942.835C424.275,929.835,424.275,916.835,424.275,903.835C424.275,890.835,424.275,877.835,407.548,867.053C390.82,856.271,357.365,847.706,340.638,843.424L323.911,839.142"/></g><g class="edgeLabels"><g class="edgeLabel"><g transform="translate(0, 0)" class="label"><rect height="2406.2783203125" width="0" ry="0" rx="0"/><text style=""><tspan class="row" x="0" dy="1em" xml:space="preserve"/></text></g></g><g transform="translate(202.1591796875, 255.33544921875)" class="edgeLabel"><g transform="translate(-7.6142578125, -6.5)" class="label"><rect height="13.000407218933105" width="15.217304229736328" ry="0" rx="0"/><text style=""><tspan class="row" x="0" dy="1em" xml:space="preserve">No</tspan></text></g></g><g class="edgeLabel"><g transform="translate(0, 0)" class="label"><rect height="0" width="0" ry="0" rx="0"/><text style=""><tspan class="row" x="0" dy="1em" xml:space="preserve"/></text></g></g><g transform="translate(132.383544921875, 546.33544921875)" class="edgeLabel"><g transform="translate(-19.51123046875, -6.5)" class="label"><rect height="13.000407218933105" width="38.97822570800781" ry="0" rx="0"/><text style=""><tspan class="row" x="0" dy="1em" xml:space="preserve">Google</tspan></text></g></g><g transform="translate(271.934814453125, 546.33544921875)" class="edgeLabel"><g transform="translate(-25.6953125, -6.5)" class="label"><rect height="13.000407218933105" width="51.314109802246094" ry="0" rx="0"/><text style=""><tspan class="row" x="0" dy="1em" xml:space="preserve">Password</tspan></text></g></g><g class="edgeLabel"><g transform="translate(0, 0)" class="label"><rect height="0" width="0" ry="0" rx="0"/><text style=""><tspan class="row" x="0" dy="1em" xml:space="preserve"/></text></g></g><g class="edgeLabel"><g transform="translate(0, 0)" class="label"><rect height="0" width="0" ry="0" rx="0"/><text style=""><tspan class="row" x="0" dy="1em" xml:space="preserve"/></text></g></g><g transform="translate(379.7550048828125, 439.83544921875)" class="edgeLabel"><g transform="translate(-9.512939453125, -6.5)" class="label"><rect height="13.000407218933105" width="19.008651733398438" ry="0" rx="0"/><text style=""><tspan class="row" x="0" dy="1em" xml:space="preserve">Yes</tspan></text></g></g><g class="edgeLabel"><g transform="translate(0, 0)" class="label"><rect height="0" width="0" ry="0" rx="0"/><text style=""><tspan class="row" x="0" dy="1em" xml:space="preserve"/></text></g></g><g class="edgeLabel"><g transform="translate(0, 0)" class="label"><rect height="0" width="0" ry="0" rx="0"/><text style=""><tspan class="row" x="0" dy="1em" xml:space="preserve"/></text></g></g><g class="edgeLabel"><g transform="translate(0, 0)" class="label"><rect height="0" width="0" ry="0" rx="0"/><text style=""><tspan class="row" x="0" dy="1em" xml:space="preserve"/></text></g></g><g class="edgeLabel"><g transform="translate(0, 0)" class="label"><rect height="0" width="0" ry="0" rx="0"/><text style=""><tspan class="row" x="0" dy="1em" xml:space="preserve"/></text></g></g><g class="edgeLabel"><g transform="translate(0, 0)" class="label"><rect height="0" width="0" ry="0" rx="0"/><text style=""><tspan class="row" x="0" dy="1em" xml:space="preserve"/></text></g></g><g class="edgeLabel"><g transform="translate(0, 0)" class="label"><rect height="0" width="0" ry="0" rx="0"/><text style=""><tspan class="row" x="0" dy="1em" xml:space="preserve"/></text></g></g><g class="edgeLabel"><g transform="translate(0, 0)" class="label"><rect height="0" width="0" ry="0" rx="0"/><text style=""><tspan class="row" x="0" dy="1em" xml:space="preserve"/></text></g></g><g class="edgeLabel"><g transform="translate(0, 0)" class="label"><rect height="0" width="0" ry="0" rx="0"/><text style=""><tspan class="row" x="0" dy="1em" xml:space="preserve"/></text></g></g><g class="edgeLabel"><g transform="translate(0, 0)" class="label"><rect height="0" width="0" ry="0" rx="0"/><text style=""><tspan class="row" x="0" dy="1em" xml:space="preserve"/></text></g></g><g class="edgeLabel"><g transform="translate(0, 0)" class="label"><rect height="0" width="0" ry="0" rx="0"/><text style=""><tspan class="row" x="0" dy="1em" xml:space="preserve"/></text></g></g><g class="edgeLabel"><g transform="translate(0, 0)" class="label"><rect height="0" width="0" ry="0" rx="0"/><text style=""><tspan class="row" x="0" dy="1em" xml:space="preserve"/></text></g></g><g class="edgeLabel"><g transform="translate(0, 0)" class="label"><rect height="0" width="0" ry="0" rx="0"/><text style=""><tspan class="row" x="0" dy="1em" xml:space="preserve"/></text></g></g><g class="edgeLabel"><g transform="translate(0, 0)" class="label"><rect height="0" width="0" ry="0" rx="0"/><text style=""><tspan class="row" x="0" dy="1em" xml:space="preserve"/></text></g></g><g class="edgeLabel"><g transform="translate(0, 0)" class="label"><rect height="0" width="0" ry="0" rx="0"/><text style=""><tspan class="row" x="0" dy="1em" xml:space="preserve"/></text></g></g><g class="edgeLabel"><g transform="translate(0, 0)" class="label"><rect height="0" width="0" ry="0" rx="0"/><text style=""><tspan class="row" x="0" dy="1em" xml:space="preserve"/></text></g></g><g class="edgeLabel"><g transform="translate(0, 0)" class="label"><rect height="0" width="0" ry="0" rx="0"/><text style=""><tspan class="row" x="0" dy="1em" xml:space="preserve"/></text></g></g><g transform="translate(99.555908203125, 2041.61474609375)" class="edgeLabel"><g transform="translate(-9.512939453125, -6.5)" class="label"><rect height="13.000407218933105" width="19.008651733398438" ry="0" rx="0"/><text style=""><tspan class="row" x="0" dy="1em" xml:space="preserve">Yes</tspan></text></g></g><g class="edgeLabel"><g transform="translate(0, 0)" class="label"><rect height="0" width="0" ry="0" rx="0"/><text style=""><tspan class="row" x="0" dy="1em" xml:space="preserve"/></text></g></g><g transform="translate(227.9383544921875, 2041.61474609375)" class="edgeLabel"><g transform="translate(-7.6142578125, -6.5)" class="label"><rect height="13.000407218933105" width="15.217304229736328" ry="0" rx="0"/><text style=""><tspan class="row" x="0" dy="1em" xml:space="preserve">No</tspan></text></g></g><g transform="translate(356.97802734375, 1573.33544921875)" class="edgeLabel"><g transform="translate(-9.512939453125, -6.5)" class="label"><rect height="13.000407218933105" width="19.008651733398438" ry="0" rx="0"/><text style=""><tspan class="row" x="0" dy="1em" xml:space="preserve">Yes</tspan></text></g></g><g transform="translate(319.193603515625, 2244.7783203125)" class="edgeLabel"><g transform="translate(-7.6142578125, -6.5)" class="label"><rect height="13.000407218933105" width="15.217304229736328" ry="0" rx="0"/><text style=""><tspan class="row" x="0" dy="1em" xml:space="preserve">No</tspan></text></g></g><g class="edgeLabel"><g transform="translate(0, 0)" class="label"><rect height="0" width="0" ry="0" rx="0"/><text style=""><tspan class="row" x="0" dy="1em" xml:space="preserve"/></text></g></g><g class="edgeLabel"><g transform="translate(0, 0)" class="label"><rect height="0" width="0" ry="0" rx="0"/><text style=""><tspan class="row" x="0" dy="1em" xml:space="preserve"/></text></g></g></g><g class="nodes"><g transform="translate(261.9156494140625, 14)" data-id="Start" data-node="true" id="flowchart-Start-0" class="node default default flowchart-label"><rect height="28" width="125.453125" y="-14" x="-62.7265625" ry="14" rx="14" style=""/><g transform="translate(0, -6.5)" style="" class="label"><rect/><text style=""><tspan class="row" x="0" dy="1em" xml:space="preserve">User Opens Baram</tspan></text></g></g><g transform="translate(261.9156494140625, 150.917724609375)" data-id="ConnectWallet" data-node="true" id="flowchart-ConnectWallet-1" class="node default default flowchart-label"><polygon style="" transform="translate(-72.917724609375,72.917724609375)" class="label-container" points="72.917724609375,0 145.83544921875,-72.917724609375 72.917724609375,-145.83544921875 0,-72.917724609375"/><g transform="translate(0, -6.5)" style="" class="label"><rect/><text style=""><tspan class="row" x="0" dy="1em" xml:space="preserve">Wallet Connected?</tspan></text></g></g><g transform="translate(202.1591796875, 300.83544921875)" data-id="ShowLock" data-node="true" id="flowchart-ShowLock-3" class="node default default flowchart-label"><rect height="28" width="114.60302734375" y="-14" x="-57.301513671875" ry="0" rx="0" style="" class="basic label-container"/><g transform="translate(0, -6.5)" style="" class="label"><rect/><text style=""><tspan class="row" x="0" dy="1em" xml:space="preserve">Show Lock Screen</tspan></text></g></g><g transform="translate(202.1591796875, 439.83544921875)" data-id="ConnectMethod" data-node="true" id="flowchart-ConnectMethod-5" class="node default default flowchart-label"><polygon style="" transform="translate(-75,75)" class="label-container" points="75,0 150,-75 75,-150 0,-75"/><g transform="translate(0, -6.5)" style="" class="label"><rect/><text style=""><tspan class="row" x="0" dy="1em" xml:space="preserve">Connection Method</tspan></text></g></g><g transform="translate(132.383544921875, 591.83544921875)" data-id="ZkLogin" data-node="true" id="flowchart-ZkLogin-7" class="node default default flowchart-label"><rect height="28" width="56.84765625" y="-14" x="-28.423828125" ry="0" rx="0" style="" class="basic label-container"/><g transform="translate(0, -6.5)" style="" class="label"><rect/><text style=""><tspan class="row" x="0" dy="1em" xml:space="preserve">zkLogin</tspan></text></g></g><g transform="translate(271.934814453125, 591.83544921875)" data-id="SelfCustody" data-node="true" id="flowchart-SelfCustody-9" class="node default default flowchart-label"><rect height="28" width="122.2548828125" y="-14" x="-61.12744140625" ry="0" rx="0" style="" class="basic label-container"/><g transform="translate(0, -6.5)" style="" class="label"><rect/><text style=""><tspan class="row" x="0" dy="1em" xml:space="preserve">Self-Custody Wallet</tspan></text></g></g><g transform="translate(271.934814453125, 669.83544921875)" data-id="WalletReady" data-node="true" id="flowchart-WalletReady-11" class="node default default flowchart-label"><rect height="28" width="87.24267578125" y="-14" x="-43.621337890625" ry="0" rx="0" style="" class="basic label-container"/><g transform="translate(0, -6.5)" style="" class="label"><rect/><text style=""><tspan class="row" x="0" dy="1em" xml:space="preserve">Wallet Ready</tspan></text></g></g><g transform="translate(271.934814453125, 747.83544921875)" data-id="LoadHistory" data-node="true" id="flowchart-LoadHistory-17" class="node default default flowchart-label"><rect height="28" width="173.25537109375" y="-14" x="-86.627685546875" ry="0" rx="0" style="" class="basic label-container"/><g transform="translate(0, -6.5)" style="" class="label"><rect/><text style=""><tspan class="row" x="0" dy="1em" xml:space="preserve">Load Encrypted Chat History</tspan></text></g></g><g transform="translate(271.934814453125, 825.83544921875)" data-id="ChatUI" data-node="true" id="flowchart-ChatUI-19" class="node default default flowchart-label"><rect height="28" width="93.6826171875" y="-14" x="-46.84130859375" ry="0" rx="0" style="" class="basic label-container"/><g transform="translate(0, -6.5)" style="" class="label"><rect/><text style=""><tspan class="row" x="0" dy="1em" xml:space="preserve">Chat Interface</tspan></text></g></g><g transform="translate(219.3939208984375, 903.83544921875)" data-id="SelectModel" data-node="true" id="flowchart-SelectModel-21" class="node default default flowchart-label"><rect height="28" width="99.734375" y="-14" x="-49.8671875" ry="0" rx="0" style="" class="basic label-container"/><g transform="translate(0, -6.5)" style="" class="label"><rect/><text style=""><tspan class="row" x="0" dy="1em" xml:space="preserve">Select AI Model</tspan></text></g></g><g transform="translate(219.3939208984375, 981.83544921875)" data-id="TypePrompt" data-node="true" id="flowchart-TypePrompt-23" class="node default default flowchart-label"><rect height="28" width="84.91064453125" y="-14" x="-42.455322265625" ry="0" rx="0" style="" class="basic label-container"/><g transform="translate(0, -6.5)" style="" class="label"><rect/><text style=""><tspan class="row" x="0" dy="1em" xml:space="preserve">Type Prompt</tspan></text></g></g><g transform="translate(219.3939208984375, 1059.83544921875)" data-id="Submit" data-node="true" id="flowchart-Submit-25" class="node default default flowchart-label"><rect height="28" width="54.7080078125" y="-14" x="-27.35400390625" ry="0" rx="0" style="" class="basic label-container"/><g transform="translate(0, -6.5)" style="" class="label"><rect/><text style=""><tspan class="row" x="0" dy="1em" xml:space="preserve">Submit</tspan></text></g></g><g transform="translate(219.3939208984375, 1137.83544921875)" data-id="AutoAssign" data-node="true" id="flowchart-AutoAssign-27" class="node default default flowchart-label"><rect height="28" width="132.91650390625" y="-14" x="-66.458251953125" ry="0" rx="0" style="fill:#e8f5e9;stroke:#2e7d32;" class="basic label-container"/><g transform="translate(0, -6.5)" style="" class="label"><rect/><text style=""><tspan class="row" x="0" dy="1em" xml:space="preserve">Auto-Assign Executor</tspan></text></g></g><g transform="translate(118.1195068359375, 1215.83544921875)" data-id="FetchPubKey" data-node="true" id="flowchart-FetchPubKey-29" class="node default default flowchart-label"><rect height="28" width="182.6279296875" y="-14" x="-91.31396484375" ry="0" rx="0" style="" class="basic label-container"/><g transform="translate(0, -6.5)" style="" class="label"><rect/><text style=""><tspan class="row" x="0" dy="1em" xml:space="preserve">Fetch Executor RSA Public Key</tspan></text></g></g><g transform="translate(118.1195068359375, 1293.83544921875)" data-id="GenAES" data-node="true" id="flowchart-GenAES-31" class="node default default flowchart-label"><rect height="28" width="170.29052734375" y="-14" x="-85.145263671875" ry="0" rx="0" style="fill:#e3f2fd;stroke:#1565c0;" class="basic label-container"/><g transform="translate(0, -6.5)" style="" class="label"><rect/><text style=""><tspan class="row" x="0" dy="1em" xml:space="preserve">Generate AES-256-GCM Key</tspan></text></g></g><g transform="translate(118.1195068359375, 1371.83544921875)" data-id="Encrypt" data-node="true" id="flowchart-Encrypt-33" class="node default default flowchart-label"><rect height="28" width="203.14111328125" y="-14" x="-101.570556640625" ry="0" rx="0" style="fill:#e3f2fd;stroke:#1565c0;" class="basic label-container"/><g transform="translate(0, -6.5)" style="" class="label"><rect/><text style=""><tspan class="row" x="0" dy="1em" xml:space="preserve">E2E Encrypt Prompt — AES + RSA</tspan></text></g></g><g transform="translate(118.1195068359375, 1449.83544921875)" data-id="BuildTx" data-node="true" id="flowchart-BuildTx-35" class="node default default flowchart-label"><rect height="28" width="163.58203125" y="-14" x="-81.791015625" ry="0" rx="0" style="" class="basic label-container"/><g transform="translate(0, -6.5)" style="" class="label"><rect/><text style=""><tspan class="row" x="0" dy="1em" xml:space="preserve">Build On-Chain Transaction</tspan></text></g></g><g transform="translate(118.1195068359375, 1527.83544921875)" data-id="SignTx" data-node="true" id="flowchart-SignTx-37" class="node default default flowchart-label"><rect height="28" width="105.4453125" y="-14" x="-52.72265625" ry="0" rx="0" style="" class="basic label-container"/><g transform="translate(0, -6.5)" style="" class="label"><rect/><text style=""><tspan class="row" x="0" dy="1em" xml:space="preserve">Sign Transaction</tspan></text></g></g><g transform="translate(118.1195068359375, 1618.83544921875)" data-id="SubmitTx" data-node="true" id="flowchart-SubmitTx-39" class="node default default flowchart-label"><rect height="28" width="169.76416015625" y="-14" x="-84.882080078125" ry="0" rx="0" style="" class="basic label-container"/><g transform="translate(0, -6.5)" style="" class="label"><rect/><text style=""><tspan class="row" x="0" dy="1em" xml:space="preserve">Submit to Nasun Blockchain</tspan></text></g></g><g transform="translate(118.1195068359375, 1696.83544921875)" data-id="EscrowCreated" data-node="true" id="flowchart-EscrowCreated-41" class="node default default flowchart-label"><rect height="28" width="152.111328125" y="-14" x="-76.0556640625" ry="0" rx="0" style="fill:#fff3e0;stroke:#e65100;" class="basic label-container"/><g transform="translate(0, -6.5)" style="" class="label"><rect/><text style=""><tspan class="row" x="0" dy="1em" xml:space="preserve">NUSDC Locked in Escrow</tspan></text></g></g><g transform="translate(118.1195068359375, 1774.83544921875)" data-id="CallExecutor" data-node="true" id="flowchart-CallExecutor-43" class="node default default flowchart-label"><rect height="28" width="183.91162109375" y="-14" x="-91.955810546875" ry="0" rx="0" style="" class="basic label-container"/><g transform="translate(0, -6.5)" style="" class="label"><rect/><text style=""><tspan class="row" x="0" dy="1em" xml:space="preserve">Send Encrypted Prompt to TEE</tspan></text></g></g><g transform="translate(118.1195068359375, 1852.83544921875)" data-id="WaitResult" data-node="true" id="flowchart-WaitResult-45" class="node default default flowchart-label"><rect height="28" width="156.53515625" y="-14" x="-78.267578125" ry="0" rx="0" style="" class="basic label-container"/><g transform="translate(0, -6.5)" style="" class="label"><rect/><text style=""><tspan class="row" x="0" dy="1em" xml:space="preserve">Waiting for TEE Execution</tspan></text></g></g><g transform="translate(118.1195068359375, 1963.47509765625)" data-id="ResultOk" data-node="true" id="flowchart-ResultOk-47" class="node default default flowchart-label"><polygon style="" transform="translate(-46.6396484375,46.6396484375)" class="label-container" points="46.6396484375,0 93.279296875,-46.6396484375 46.6396484375,-93.279296875 0,-46.6396484375"/><g transform="translate(0, -6.5)" style="" class="label"><rect/><text style=""><tspan class="row" x="0" dy="1em" xml:space="preserve">Success?</tspan></text></g></g><g transform="translate(99.555908203125, 2143.196533203125)" data-id="DecryptResp" data-node="true" id="flowchart-DecryptResp-49" class="node default default flowchart-label"><rect height="28" width="199.11181640625" y="-14" x="-99.555908203125" ry="0" rx="0" style="fill:#e3f2fd;stroke:#1565c0;" class="basic label-container"/><g transform="translate(0, -6.5)" style="" class="label"><rect/><text style=""><tspan class="row" x="0" dy="1em" xml:space="preserve">Decrypt E2E Encrypted Response</tspan></text></g></g><g transform="translate(99.555908203125, 2290.2783203125)" data-id="ShowResult" data-node="true" id="flowchart-ShowResult-51" class="node default default flowchart-label"><rect height="28" width="126.37109375" y="-14" x="-63.185546875" ry="0" rx="0" style="fill:#e8f5e9;stroke:#2e7d32;" class="basic label-container"/><g transform="translate(0, -6.5)" style="" class="label"><rect/><text style=""><tspan class="row" x="0" dy="1em" xml:space="preserve">Display AI Response</tspan></text></g></g><g transform="translate(319.193603515625, 2143.196533203125)" data-id="ReRoll" data-node="true" id="flowchart-ReRoll-53" class="node default default flowchart-label"><polygon style="" transform="translate(-70.081787109375,70.081787109375)" class="label-container" points="70.081787109375,0 140.16357421875,-70.081787109375 70.081787109375,-140.16357421875 0,-70.081787109375"/><g transform="translate(0, -6.5)" style="" class="label"><rect/><text style=""><tspan class="row" x="0" dy="1em" xml:space="preserve">Re-Roll Available?</tspan></text></g></g><g transform="translate(319.193603515625, 2290.2783203125)" data-id="ShowError" data-node="true" id="flowchart-ShowError-57" class="node default default flowchart-label"><rect height="28" width="86.3330078125" y="-14" x="-43.16650390625" ry="0" rx="0" style="" class="basic label-container"/><g transform="translate(0, -6.5)" style="" class="label"><rect/><text style=""><tspan class="row" x="0" dy="1em" xml:space="preserve">Display Error</tspan></text></g></g><g transform="translate(271.934814453125, 2368.2783203125)" data-id="SaveChat" data-node="true" id="flowchart-SaveChat-59" class="node default default flowchart-label"><rect height="28" width="179.296875" y="-14" x="-89.6484375" ry="0" rx="0" style="" class="basic label-container"/><g transform="translate(0, -6.5)" style="" class="label"><rect/><text style=""><tspan class="row" x="0" dy="1em" xml:space="preserve">Save to Encrypted IndexedDB</tspan></text></g></g></g></g></g></svg>