<svg width="154" height="44" viewBox="0 0 154 44" fill="none" xmlns="http://www.w3.org/2000/svg">
                        <path id="gsr-logo-text" d="M76.8486 21.4814H88.1442V22.5419C85.4806 22.9365 84.5434 23.3557 84.5434 27.0305V38.7946C80.696 41.2363 76.232 42.5187 71.6941 42.4694C58.9681 42.4694 50.8047 34.0347 50.8047 22.0979C50.8047 9.86517 60.1272 1.08521 73.0999 1.08521C78.501 1.08521 82.6937 2.19503 86.3191 3.99542V10.4817H85.2093C83.2856 5.25322 79.2656 2.78694 72.9272 2.78694C61.6317 2.78694 53.7149 10.753 53.7149 21.802C53.7149 33.2702 61.5083 40.6444 72.286 40.6444C75.7881 40.6444 79.0436 39.9538 81.9538 38.474V27.0305C81.9538 23.3064 81.1399 22.8871 76.8979 22.4925L76.8486 21.4814ZM91.449 38.474V31.6178H92.5588C94.8771 38.4247 99.1931 40.6937 104.027 40.6937C108.738 40.6937 113.744 37.7341 113.744 32.259C113.744 28.7076 111.648 26.6605 106.888 24.4656L100.944 21.728C95.9376 19.4097 92.8548 16.2035 92.8548 11.3696C92.8548 5.84513 97.4421 1.06055 105.088 1.06055C109.108 1.06055 113.3 2.34301 115.841 3.92143V10.3831H114.731C112.881 4.56267 108.91 2.83627 104.792 2.83627C99.1931 2.83627 95.4197 6.21507 95.4197 11.0983C95.4197 15.2417 98.034 17.4367 102.054 19.237L108.047 21.9746C113.399 24.4162 116.309 27.2031 116.309 31.8151C116.309 37.9808 110.834 42.4694 103.78 42.4694C99.3658 42.4448 95.0498 41.0636 91.449 38.474ZM153.599 41.8035V41.9762H150.048L130.219 21.3087H127.087V35.6131C127.087 40.3731 127.95 40.669 130.762 40.9156V41.9762H120.798V40.9156C123.708 40.6937 124.472 40.3977 124.472 35.6131V8.21276C124.472 3.84744 123.831 2.91026 120.798 2.56498V1.52914H133.351C142.032 1.52914 147.557 5.25323 147.557 11.2463C147.557 17.116 142.254 21.1361 133.894 21.432L153.599 41.8035ZM127.062 19.5577H132.833C140.454 19.5577 144.696 16.5241 144.696 11.2956C144.696 6.23973 140.503 3.2802 132.883 3.2802H127.062V19.5577Z" fill="#EDE6DF"></path>
                        <path id="gsr-logo-icon" d="M22.4678 14.773V0H20.8154V14.773C21.358 14.699 21.9006 14.699 22.4678 14.773ZM10.5803 3.00886L9.17457 3.89673L17.1653 16.3268C17.5846 15.9815 18.0532 15.6609 18.5711 15.4389L10.5803 3.00886ZM2.21965 11.9368L1.52909 13.4412L14.9703 19.5823C15.143 19.0644 15.3649 18.5464 15.6609 18.0778L2.21965 11.9368ZM0 23.9969L0.246628 25.6493L14.8717 23.553C14.7237 23.0104 14.6497 22.4678 14.625 21.9006L0 23.9969ZM15.8335 25.6493L4.66127 35.3172L5.74643 36.575L16.9187 26.9071C16.5241 26.5372 16.1541 26.0933 15.8335 25.6493ZM14.7237 42.3461L16.3268 42.8146L20.4948 28.6335C19.9522 28.5349 19.4096 28.3869 18.8917 28.1649L14.7237 42.3461ZM26.9565 42.8146L28.5595 42.3461L24.4162 28.1649C23.8983 28.3869 23.3803 28.5349 22.8131 28.6335L26.9565 42.8146ZM26.3399 26.9071L37.5121 36.575L38.5973 35.3172L27.4251 25.6493C27.1044 26.1179 26.7592 26.5372 26.3399 26.9071ZM28.3869 23.5283L43.0119 25.6247L43.2586 23.9723L28.6335 21.8759C28.6089 22.4432 28.5349 23.0104 28.3869 23.5283ZM41.7542 13.4659L41.0636 11.9615L27.6224 18.1025C27.9183 18.5711 28.1403 19.089 28.3129 19.6069L41.7542 13.4659ZM34.084 3.89673L32.6782 3.00886L24.6875 15.4389C25.1807 15.6856 25.6493 15.9815 26.0933 16.3268L34.084 3.89673ZM14.7237 1.10983L16.3268 0.641235L19.0644 9.96378L17.4613 10.4324L14.7237 1.10983ZM24.2189 9.96378L26.9565 0.641235L28.5595 1.10983L25.822 10.4324L24.2189 9.96378ZM4.66127 8.11406L5.74643 6.85626L13.096 13.2193L12.0108 14.4771L4.66127 8.11406ZM0 19.459L0.246628 17.8066L9.86512 19.1877L9.6185 20.8401L0 19.459ZM1.65241 29.99L10.5064 25.896L11.1969 27.4004L2.34297 31.4944L1.65241 29.99ZM9.19923 39.5592L14.4524 31.3711L15.8582 32.259L10.605 40.447L9.19923 39.5592ZM20.8154 33.7387H22.4678V43.4559H20.8154V33.7387ZM27.4251 32.259L28.8308 31.3464L34.084 39.5345L32.6782 40.447L27.4251 32.259ZM32.2096 27.4744L32.9002 25.9699L41.7542 30.0146L41.0636 31.5191L32.2096 27.4744ZM33.3935 19.1877L43.0119 17.8066L43.2586 19.459L33.6401 20.8401L33.3935 19.1877ZM30.1626 13.2439L37.5121 6.88092L38.5973 8.13873L31.2478 14.5017L30.1626 13.2439Z" fill="#E4C8AC"></path>
                    </svg>